<svg xmlns="http://www.w3.org/2000/svg" width="483.047" height="49.909"><defs><clipPath id="a"><path data-name="長方形 163356" fill="none" d="M0 0h483.047v49.909H0z"/></clipPath></defs><g data-name="グループ 84768" clip-path="url(#a)"><path data-name="パス 60886" d="M36.783 3.152c-7.333 0-8.821 7.909-8.821 7.909S25.951.009 14.794.009A11.524 11.524 0 002.812 11.055v.159c0 10.214 7.721 15.713 12.33 18.552 4.871 2.975 10.4 8.108 11.052 13.765 1.519-7.459 8.8-11.932 12.728-14.226a17.223 17.223 0 008.986-15.153 11.02 11.02 0 00-11.041-11h-.084zm-.786 25.477c-2.839 1.571-8.286 4.8-9.428 9.868-.492-3.845-4.3-7.522-7.815-9.554-3.331-1.907-8.915-5.667-8.915-12.571 0-3.059 2.65-7.616 8.663-7.616 8.066 0 9.24 7.647 9.24 7.647s1.33-5.489 6.652-5.489a7.752 7.752 0 018.056 7.427 11.641 11.641 0 01-6.484 10.3z" fill="#fc0"/><path data-name="パス 60887" d="M.1 25.665c-.681 7.762 2.336 16.164 6.338 19.8 5.657 5.144 12.225 4.065 16 2.86.178-3.771-.807-7.071-5.238-10.088C12.07 34.684 1.427 34.809.1 25.665" fill="#f93"/><path data-name="パス 60888" d="M46.985 33.154c.545 5.3-1.11 11.167-4.316 13.618-4.536 3.52-10 2.7-13.021 1.875-.325-3.771 1.1-6.223 4.913-8.108 4.3-2.116 10.486-.241 12.424-7.385" fill="#f93"/><path data-name="パス 60889" d="M137.998 18.625a4.412 4.412 0 00-.974.1 5.343 5.343 0 011.32 7.438 5.639 5.639 0 01-1.32 1.32 4.487 4.487 0 101.959-8.758 3.9 3.9 0 00-.985-.1" fill="#f93"/><path data-name="パス 60890" d="M133.169 27.592a4.484 4.484 0 10-4.484-4.484v.063h-2.483V18.52h-4.431v4.651h-9.25v4.421h9.25v21.649h4.431V27.592zm0-5.9a1.4 1.4 0 11-1 .419 1.4 1.4 0 011-.419" fill="#f93"/><path data-name="パス 60891" d="M110.833 42.415v5.237c8.014-3.614 8.024-13.063 8.024-17.651h-4.424c0 4.578-.335 9.659-3.593 12.414" fill="#f93"/><path data-name="パス 60892" d="M133.87 29.96h-4.431c0 4.63 0 14.215 8.255 17.746v-5.092c-3.488-2.7-3.824-7.888-3.824-12.655" fill="#f93"/><path data-name="パス 60893" d="M66.566 24.104V18.52h-4.433v5.584h-7.825v4.421h7.8c-.136 7.333-4.075 13.44-7.794 15.881v4.955c6.065-2.3 12.089-10.758 12.236-20.836h8.5v14.037c0 2.273-1.309 2.273-2.011 2.273h-6.073v4.406h6.076c3.918 0 6.443-2.64 6.443-6.7V24.104z" fill="#f93"/><path data-name="パス 60894" d="M108.948 18.52h-5.018c-5.991 10.738-15.032 12.921-21.024 13.796v4.473a36.41 36.41 0 0013.168-4.085v16.537h4.431V29.635a32.812 32.812 0 008.443-11.115" fill="#f93"/><path data-name="パス 60895" d="M167.864 25.35h-17.808a30.393 30.393 0 001.456-6.83h-4.463c-.712 6.044-3.53 11.377-6.767 13.168v4.753c2.755-.786 5.584-3.069 7.731-6.663h10.4c-.44 6.746-3.143 14.456-13.032 15.033v4.43c10.476-.492 16.761-7.532 17.463-19.474h4.976z" fill="#f93"/><path data-name="パス 60896" d="M185.026 28.508h-11.848v-2.86h11.848zm-1.069-4.463h-9.805v-2.8h9.805zm0 8.925h-9.805v-2.8h9.805zm0 4.714h-9.805v-2.8h9.805zm4.65 1.383a26.3 26.3 0 01-2.419 9.081l-2.231-1.446v2.421h-9.805v-9.585h9.805v6.227a17.32 17.32 0 001.759-6.914zm-7.417 3.173h-4.243v4.18h4.243zm3.112-9.27a11.966 11.966 0 005.122-4.305c-1.006-.346-1.571-.534-3.393-1.069l1.068-2.42a30.876 30.876 0 013.456.911 14.624 14.624 0 00.409-2.137h-4.933v-2.7h15.618c0 6.883-.22 10.277-.943 11.911a2.712 2.712 0 01-2.828 1.823h-3.115l-.471-3.08h2.891c1.226 0 1.6-.943 1.7-7.951h-4.745a17.723 17.723 0 01-.786 3.206 16.227 16.227 0 013.268 1.728l-1.351 2.609a22.962 22.962 0 00-3.111-1.7 15.508 15.508 0 01-5.877 5.783zm8.17 6.1v6.63c0 .724.251.911.6.911h1.571c.817 0 .911-.786 1.131-3.2l2.828.88c-.346 3.488-.88 5.153-2.828 5.153h-3.711a2.259 2.259 0 01-2.546-2.263v-8.116zm2.7.942a28 28 0 00-5.405-3.959l1.823-2.231a24.041 24.041 0 015.248 3.928zm4.871 8.14a37.872 37.872 0 00-2.357-9.081l2.766-.754a32.132 32.132 0 012.577 8.894z" fill="#707070"/><path data-name="パス 60897" d="M217.05 47.332a41.134 41.134 0 01-4.18-6.034 16.865 16.865 0 01-6.5 8.234l-2.294-2.8a14.523 14.523 0 006.976-10.591h-6.756v-3.11h7.007v-5.97h-1.637a37.652 37.652 0 01-2.734 4.432l-2.828-1.823a21.884 21.884 0 004.778-9.711l3.3.566c-.566 1.822-.754 2.387-1.131 3.393h8.265v3.143h-4.871v5.972h5.28v3.11h-5.5c-.063.534-.094.629-.126.911 1.571 3.363 2.608 4.683 5.531 8.014zm15.9 1.6h-12.348V21.845h12.351zm-3.3-24.009h-5.971v20.931h5.971z" fill="#707070"/><path data-name="パス 60898" d="M235.777 47.395c.943-1.006 3.237-3.488 4.117-8.893a35.581 35.581 0 01-3.866 1.853l-.88-3.173a54.112 54.112 0 005.028-1.761V22.915h9.9v-2.64h3.207v2.64h11.6v2.954h-21.591v8.327c0 9.586-3.457 13.609-4.871 15.3zm2.168-22.564a27.842 27.842 0 011.917 5.72l-2.766 1.446a23.555 23.555 0 00-1.791-5.72zm26.272 4.054v2.923h-8.077v4.934h7.165v2.859h-7.165v6.285h8.737v2.986h-22.56v-2.985h3.646V34.196h3.2v11.691h3.835V31.809h-8.58v-2.923z" fill="#707070"/><path data-name="パス 60899" d="M269.596 30.518a51.915 51.915 0 015 4.557 28.436 28.436 0 001.6-6.881h-9.585v-3.205h5.969v-4.777h3.331v4.777h5.5v3.206h-1.821a41.506 41.506 0 01-2.577 9.458 39.859 39.859 0 014.588 6.16l-2.702 2.105a42.665 42.665 0 00-3.426-5 27.838 27.838 0 01-7.165 8.171l-2.263-2.891a24.211 24.211 0 007.1-8.013 40.193 40.193 0 00-5.965-5.467zm14.584 1.479a38.549 38.549 0 014.21 8.359l-3.237 1.571a39.777 39.777 0 00-3.99-8.327zm9.238-11.785v5.813h2.64v3.363h-2.64V46.83c0 2.42-1.32 2.86-3.74 2.86h-4.808l-.849-3.206h4.934c1.006 0 1.068-.126 1.068-.786v-16.31h-7.636v-3.363h7.636v-5.813z" fill="#707070"/><path data-name="パス 60900" d="M311.141 20.306h3.237v2.891h12.288v3.111h-23.318v10.59a32.211 32.211 0 01-.817 6.664 16.14 16.14 0 01-2.7 5.97l-2.548-2.51c.849-1.226 2.828-4.118 2.828-9.9V23.197h11.03zm-2.577 15.616c-.722 7.04-2.23 9.742-3.173 11.124l-2.577-1.634c.911-1.571 2.106-3.77 2.86-10.056zm3.143-9.145a35.731 35.731 0 017.071 4.714l-2.2 2.608a25.374 25.374 0 00-6.98-4.777zm-1.666 6.883h3.111v11.788c0 .722.377.722.974.722h2.734c.754 0 .911-.282 1.006-.691.126-.566.251-2.42.409-4.683l3.268.63c-.6 5.814-.817 7.761-3.834 7.761h-5.06c-.911 0-2.608-.283-2.608-2.263zm13.451.377a47.357 47.357 0 013.8 12.13l-3.394.88a38.855 38.855 0 00-3.677-11.878z" fill="#707070"/><path data-name="パス 60901" d="M341.94 38.188h-2.985v-7.229h-3.551a9.532 9.532 0 01-4.9 7.6l-2.011-2.827c3.426-1.761 3.771-3.8 3.928-4.777h-3.488v-2.824h3.52v-3.805h-3.048v-2.8h15.4v2.8h-2.86v3.8h3.3v2.828h-3.3v6.1h3.3v2.577h10.842v2.827h-11v3.143h12.948v2.925h-29.1v-2.923h13.01v-3.142h-11.067v-2.828h11.061zm-6.473-10.057h3.488v-3.805h-3.488zm11.816-6.16h3.111v11.031h-3.111zm6.694-1.571h3.206v14.3c0 1.257-.063 2.986-2.263 2.986h-4.715l-.6-2.986h3.677c.691 0 .691-.534.691-.85z" fill="#707070"/><path data-name="パス 60902" d="M360.043 32.341h6.505v8.3c0 3.991 3.991 5.248 6.977 5.248h16.215L389.081 49h-15.682c-2.451 0-5.688-.66-7.542-3.614a21.406 21.406 0 01-4.556 4.525l-1.7-3.52a18.637 18.637 0 003.772-2.734v-8.141h-3.332zm2.86-11.785a43.323 43.323 0 014.745 5.657l-2.766 2.106a33.691 33.691 0 00-4.462-5.813zm11.439 3.332h-5.248v-2.609h18.384v2.609a25.118 25.118 0 01-5.844 3.3h6.63v14.864c0 2.231-1.289 2.608-2.545 2.608h-3.708l-.566-2.954h3.083c.723 0 .786-.409.786-.911v-1.54h-5.09v5.123h-2.923v-5.123h-4.973v5.405h-2.986V27.188h5.971a16.1 16.1 0 00-2.483-1.478zm-2.014 8.107h4.965v-2.262h-4.965zm0 4.714h4.965v-2.325h-4.965zm2.577-12.821c1.194.723 2.357 1.539 3.52 2.357a26.387 26.387 0 004.274-2.357zm5.311 8.107h5.091v-2.262h-5.091zm0 4.714h5.091v-2.325h-5.091z" fill="#707070"/><path data-name="パス 60903" d="M392.727 27.22h11.6v11.943h-8.454c-.189 5.405-.754 7.919-2.546 10.5l-2.766-2.293c.786-1.321 2.168-3.647 2.168-9.114zm12.759-2.891h-14.267v-3.08h14.268zm-9.617 11.658h5.311v-5.718h-5.311zm24.45-12.946c-2.326.974-5.123 1.76-10.433 2.263v4.524h10.558v3.143h-3.426v16.687h-3.237V32.97h-3.9c.03 2.891-.031 10.874-4.211 16.562l-2.923-2.263c3.9-4.243 3.9-11.093 3.9-12.35V22.475a30.8 30.8 0 0011.627-2.42z" fill="#707070"/><path data-name="パス 60904" d="M450.143 33.474a33.3 33.3 0 01-13.324-10.025 32.46 32.46 0 01-13.262 9.837l-1.823-3.112c5.594-2.2 10.025-4.933 13.828-9.961h2.987c2.577 3.96 7.165 7.51 13.513 9.961zm-17.849-2.011v6.787c0 7.48-4.463 10.622-5.845 11.565l-2.671-2.451c2.074-1.571 5.343-4.023 5.343-9.271v-6.63zm12.288 18.2h-3.3v-18.2h3.3z" fill="#707070"/><path data-name="パス 60905" d="M463.5 28.418h-10.306v-2.833H463.5zm4.211-3.048v-1.073H463.5v-2.579h4.211v-1.507h2.923v1.507h5.625v-1.507h2.954v1.507h3.614v2.577h-3.614v1.634h-2.954v-1.632h-5.625v1.634h-1.1a10.883 10.883 0 01-.535 1.289h3.709c.5-1.1.533-1.131.848-1.917l2.607.723c-.187.409-.408.88-.6 1.194h6.537v2.011h-6.82v1.32h6.129v1.667h-6.129v1.226h6.129v1.728h-6.129v1.476h7.542v2.01h-17.656v-6.065a10.937 10.937 0 01-1.351 1.194l-.974-1.32v.409h-8.611v-2.8h8.611v.786a18.214 18.214 0 003.991-5.751zm-4.871-1.6h-8.611v-2.773h8.611zm0 13.8h-8.611v-2.839h8.611zm5.625 4.651h-4.651v-2.403h17.379v2.388a25.09 25.09 0 01-4.65 3.739 28.17 28.17 0 006.5.691l-.752 3.08a37.06 37.06 0 01-9.46-1.947 35.428 35.428 0 01-8.953 1.949l-1.038-2.8v2.231h-8.611v-9.673h8.611v7.384a25.341 25.341 0 006.411-.847 14.378 14.378 0 01-3.174-2.608zm-8.359 0h-3.111v4.273h3.111zm12.6-12.979h-4.746v1.32h4.746zm0 2.986h-4.746v1.226h4.746zm0 2.954h-4.746v1.476h4.746zm-4.054 7.04a11.784 11.784 0 004.148 2.577 14.492 14.492 0 004.242-2.577z" fill="#707070"/></g></svg>