<svg xmlns="http://www.w3.org/2000/svg" width="360.086" height="50"><defs><clipPath id="a"><path data-name="長方形 163295" fill="none" d="M0 0h360.086v50H0z"/></clipPath></defs><g data-name="グループ 84658" clip-path="url(#a)"><path data-name="パス 60578" d="M36.919 3.164c-7.36 0-8.853 7.939-8.853 7.939S26.047.009 14.849.009A11.566 11.566 0 002.822 11.1v.164c0 10.252 7.749 15.772 12.376 18.621 4.887 2.983 10.44 8.135 11.091 13.815 1.525-7.486 8.832-11.976 12.775-14.279A17.287 17.287 0 0048.085 14.2 11.061 11.061 0 0037.003 3.164h-.084zm-.789 25.571c-2.849 1.577-8.317 4.816-9.463 9.9-.494-3.859-4.311-7.549-7.844-9.589-3.344-1.914-8.948-5.688-8.948-12.617 0-3.07 2.66-7.644 8.7-7.644 8.1 0 9.274 7.676 9.274 7.676s1.335-5.51 6.677-5.51a7.781 7.781 0 018.086 7.455 11.684 11.684 0 01-6.509 10.336z" fill="#fc0"/><path data-name="パス 60579" d="M.1 25.761c-.687 7.79 2.341 16.223 6.358 19.872 5.678 5.163 12.271 4.08 16.056 2.87.179-3.785-.81-7.1-5.257-10.126C12.115 34.813 1.432 34.939.1 25.761" fill="#f93"/><path data-name="パス 60580" d="M47.16 33.278c.547 5.32-1.115 11.209-4.332 13.669-4.553 3.533-10.042 2.713-13.074 1.882-.326-3.785 1.1-6.246 4.931-8.138 4.311-2.124 10.525-.242 12.47-7.413" fill="#f93"/><path data-name="パス 60581" d="M138.511 18.694a4.428 4.428 0 00-.978.105 5.362 5.362 0 011.325 7.465 5.66 5.66 0 01-1.325 1.325 4.504 4.504 0 101.966-8.79 3.911 3.911 0 00-.988-.105" fill="#f93"/><path data-name="パス 60582" d="M133.663 27.695a4.5 4.5 0 10-4.5-4.5v.063h-2.492v-4.669h-4.444v4.668h-9.284v4.437h9.284v21.734h4.448V27.695zm0-5.92a1.409 1.409 0 11-1 .421 1.409 1.409 0 011-.421" fill="#f93"/><path data-name="パス 60583" d="M111.244 42.574v5.257c8.044-3.628 8.054-13.112 8.054-17.717h-4.448c0 4.595-.336 9.694-3.606 12.46" fill="#f93"/><path data-name="パス 60584" d="M134.368 30.072h-4.448c0 4.647 0 14.268 8.285 17.812v-5.112c-3.5-2.713-3.838-7.917-3.838-12.7" fill="#f93"/><path data-name="パス 60585" d="M66.812 24.193v-5.6h-4.444v5.6H54.51v4.437h7.833c-.137 7.36-4.09 13.49-7.823 15.94v4.973c6.088-2.313 12.134-10.8 12.281-20.913h8.527v14.09c0 2.282-1.314 2.282-2.019 2.282h-6.1v4.427h6.1c3.932 0 6.466-2.65 6.466-6.729V24.193z" fill="#f93"/><path data-name="パス 60586" d="M109.353 18.589h-5.036c-6.014 10.777-15.088 12.964-21.1 13.848v4.49a36.545 36.545 0 0013.217-4.1v16.6h4.448V29.745a32.934 32.934 0 008.475-11.156" fill="#f93"/><path data-name="パス 60587" d="M168.491 25.445h-17.878a30.507 30.507 0 001.462-6.856h-4.484c-.715 6.067-3.543 11.419-6.792 13.217v4.774c2.765-.789 5.6-3.081 7.76-6.687H159c-.442 6.771-3.154 14.51-13.08 15.088v4.448c10.515-.494 16.823-7.56 17.528-19.547h4.994z" fill="#f93"/><path data-name="パス 60588" d="M173.538 47.067c1.356-2.366 2.618-5.2 2.618-12.49v-13.28h25.707v8.454h-9.3v2.775h10.913v2.84h-10.917v3h8.579v10.941h-20V38.361h8.3v-3h-10.096c0 8.2-1.924 12.08-3.344 14.446zm25.139-22.963h-19.335v2.934h19.335zm-19.335 8.421h10.094V29.75h-10.094zm18.61 8.518h-13.626v5.52h13.626z" fill="#707070"/><path data-name="パス 60589" d="M219.466 36.375l14.982-1.577.253 3.122-15.236 1.609v6.246c0 .6.442.6.662.6h8.675a.909.909 0 001.009-.82 38.472 38.472 0 00.226-4.229l3.438.852c-.126 4.763-.284 7.476-3.438 7.476h-10.855c-.82 0-3.028 0-3.028-2.334v-7.445l-10.85 1.167-.221-3.153 11.071-1.167v-3.817c-1.83.221-3.879.346-5.677.472l-1.04-3.217c2.429-.094 11.45-.409 18.674-2.964l1.64 2.964a46.659 46.659 0 01-10.285 2.332zm-1.167-16.119h3.281v2.776h12.271v7.539h-3.281v-4.385h-21.26v4.385h-3.312v-7.539h12.3z" fill="#707070"/><path data-name="パス 60590" d="M264.446 33.593a33.41 33.41 0 01-13.373-10.061 32.571 32.571 0 01-13.311 9.873l-1.83-3.124c5.615-2.207 10.062-4.951 13.879-10h3c2.587 3.975 7.191 7.539 13.563 10zm-17.916-2.019v6.819c0 7.507-4.479 10.662-5.867 11.608l-2.681-2.46c2.082-1.577 5.362-4.038 5.362-9.305v-6.657zm12.333 18.264h-3.317V31.579h3.312z" fill="#707070"/><path data-name="パス 60591" d="M277.853 28.52h-10.345v-2.839h10.345zm4.227-3.061v-1.072h-4.227v-2.586h4.227v-1.514h2.934v1.514h5.646v-1.514h2.965v1.514h3.626v2.586h-3.626v1.64h-2.965v-1.64h-5.646v1.64h-1.1a10.772 10.772 0 01-.536 1.293h3.714c.5-1.1.536-1.136.852-1.924l2.617.726c-.188.41-.409.884-.6 1.2h6.56v2.019h-6.839v1.326h6.151v1.671h-6.151v1.23h6.151v1.735h-6.151v1.48h7.569v2.019h-17.726v-6.088a10.977 10.977 0 01-1.356 1.2l-.977-1.321v.41h-8.643v-2.81h8.643v.789a18.276 18.276 0 004.006-5.771zm-4.888-1.608h-8.643v-2.775h8.643zm0 13.847h-8.643v-2.839h8.643zm5.646 4.668h-4.668v-2.4h17.443v2.4a25.157 25.157 0 01-4.667 3.754 28.292 28.292 0 006.529.694l-.756 3.09a37.206 37.206 0 01-9.495-1.955 35.537 35.537 0 01-8.99 1.955l-1.042-2.806v2.239h-8.643v-9.715h8.643v7.413a25.406 25.406 0 006.435-.852 14.4 14.4 0 01-3.186-2.618zm-8.391 0h-3.123v4.29h3.123zm12.645-13.027h-4.76v1.325h4.76zm0 3h-4.76v1.23h4.76zm0 2.965h-4.76v1.479h4.76zm-4.069 7.066a11.807 11.807 0 004.169 2.583 14.508 14.508 0 004.258-2.587z" fill="#707070"/><path data-name="パス 60592" d="M327.092 49.748c-6.782-1.072-10.976-2.807-13.657-4.479a38.766 38.766 0 01-13.122 4.605l-1.483-3.564c1.893-.221 7.287-.883 11.671-3.154a26.318 26.318 0 01-5.8-6.844l2.65-1.672a23.946 23.946 0 006.183 6.623 28.853 28.853 0 006.623-7.254h-19.056v-3.091h10.851v-4.129h-13.154v-3.158h13.154v-3.442h3.185v3.438h13.28v3.162h-13.28v4.132h8.9v3.154a34 34 0 01-7.569 9.052 29.407 29.407 0 0011.891 3.06z" fill="#707070"/><path data-name="パス 60593" d="M329.712 36.784a29.5 29.5 0 003.88-1.009v-6.97h-3.6v-2.966h3.6v-5.488h3.28v5.488h2.618v2.965h-2.618v5.867c.756-.284 1.326-.536 2.333-.978l-.093 3.186a13.955 13.955 0 01-2.241 1.072v9.525a2.194 2.194 0 01-2.334 2.46H330.5l-.348-3.249h2.651c.662 0 .789-.189.789-.946v-6.56a24.81 24.81 0 01-3.6 1.071zm17.663 0a15.958 15.958 0 01-.5 2.019h10.851v2.4a12.5 12.5 0 01-3.723 4.479 17.644 17.644 0 006.089 1.009l-1.456 3.247a25.824 25.824 0 01-7.572-2.46 29.22 29.22 0 01-6.53 2.46l-1.23-3.123a16.162 16.162 0 004.859-1.136 8.519 8.519 0 01-2.43-2.523l2.556-1.387a7.07 7.07 0 002.68 2.459 10.551 10.551 0 003.311-3.028h-8.262a26.738 26.738 0 01-5.994 8.738l-2.3-2.177a22.9 22.9 0 006.562-10.977h-4.48v-2.649h4.921c.063-.757.095-1.136.126-1.987h-4.384v-2.65h12.867a37.494 37.494 0 002.745-5.552l2.964 1.136a27.526 27.526 0 01-2.24 4.416h2.177v2.65h-11.134c0 .852-.032 1.23-.063 1.987h11.829v2.649zm11.67-13.689c-3.312 1.041-10.977 2.145-18.578 2.113l-.978-3c9.558-.063 14.162-.631 18.358-2.019zm-14.761 2.177a31.336 31.336 0 011.229 3.533l-3.186.662a29.47 29.47 0 00-1.261-3.5zm6.246-.347a22.836 22.836 0 011.009 3.691l-3.217.631a35.714 35.714 0 00-1.105-3.691z" fill="#707070"/></g></svg>