<svg xmlns="http://www.w3.org/2000/svg" width="488.21" height="50.233"><defs><clipPath id="a"><path data-name="長方形 163363" fill="none" d="M0 0h488.21v50.233H0z"/></clipPath></defs><g data-name="グループ 84772" clip-path="url(#a)"><path data-name="パス 60960" d="M37.021 3.174c-7.381 0-8.878 7.96-8.878 7.96S26.119.011 14.89.011A11.6 11.6 0 002.83 11.128v.164c0 10.28 7.771 15.816 12.41 18.673 4.9 2.994 10.47 8.161 11.124 13.854 1.529-7.507 8.857-12.009 12.811-14.318a17.335 17.335 0 009.046-15.257 11.092 11.092 0 00-11.115-11.07h-.084zm-.791 25.642c-2.857 1.582-8.34 4.829-9.489 9.932-.5-3.87-4.323-7.57-7.866-9.616-3.353-1.919-8.973-5.7-8.973-12.652 0-3.079 2.668-7.665 8.72-7.665 8.119 0 9.3 7.7 9.3 7.7s1.339-5.525 6.7-5.525a7.8 7.8 0 018.108 7.475 11.716 11.716 0 01-6.527 10.364z" fill="#fc0"/><path data-name="パス 60961" d="M.1 25.833c-.685 7.813 2.351 16.269 6.379 19.928 5.694 5.177 12.3 4.091 16.1 2.878.179-3.8-.812-7.117-5.272-10.154C12.148 34.91 1.436 35.033.1 25.833" fill="#f93"/><path data-name="パス 60962" d="M47.29 33.37c.548 5.335-1.118 11.24-4.344 13.707-4.565 3.544-10.069 2.72-13.11 1.887-.327-3.8 1.107-6.263 4.945-8.161 4.323-2.13 10.554-.243 12.5-7.433" fill="#f93"/><path data-name="パス 60963" d="M138.895 18.746a4.44 4.44 0 00-.981.105 5.377 5.377 0 011.329 7.486 5.676 5.676 0 01-1.331 1.33 4.516 4.516 0 101.972-8.815 3.922 3.922 0 00-.991-.105" fill="#f93"/><path data-name="パス 60964" d="M134.034 27.772a4.513 4.513 0 10-4.513-4.513v.063h-2.5v-4.681h-4.46v4.681h-9.31v4.45h9.31v21.79h4.46v-21.79zm0-5.936a1.413 1.413 0 11-1 .422 1.413 1.413 0 011-.422" fill="#f93"/><path data-name="パス 60965" d="M111.552 42.691v5.272c8.066-3.638 8.076-13.148 8.076-17.766h-4.46c0 4.608-.337 9.721-3.616 12.494" fill="#f93"/><path data-name="パス 60966" d="M134.74 30.155h-4.46c0 4.66 0 14.308 8.308 17.861v-5.125c-3.511-2.72-3.848-7.939-3.848-12.737" fill="#f93"/><path data-name="パス 60967" d="M66.997 24.262v-5.62h-4.46v5.62h-7.876v4.449h7.858c-.137 7.381-4.1 13.528-7.845 15.984v4.987c6.1-2.32 12.167-10.828 12.315-20.971h8.551v14.128c0 2.288-1.318 2.288-2.024 2.288h-6.118v4.435h6.115c3.943 0 6.484-2.657 6.484-6.748V24.262z" fill="#f93"/><path data-name="パス 60968" d="M109.657 18.641h-5.054c-6.031 10.807-15.13 13-21.161 13.886v4.5a36.646 36.646 0 0013.261-4.11v16.645h4.46V29.828a33.025 33.025 0 008.5-11.187" fill="#f93"/><path data-name="パス 60969" d="M168.955 25.515H151.03a30.592 30.592 0 001.466-6.874h-4.492c-.717 6.084-3.553 11.45-6.811 13.253v4.787c2.773-.791 5.62-3.089 7.781-6.706h10.47c-.443 6.79-3.163 14.55-13.116 15.13v4.457c10.544-.5 16.87-7.581 17.576-19.6h5.008z" fill="#f93"/><path data-name="パス 60970" d="M174.493 32.552h6.548v8.351c0 4.017 4.017 5.282 7.022 5.282h16.321l-.664 3.131h-15.784c-2.467 0-5.725-.664-7.591-3.638a21.53 21.53 0 01-4.586 4.555l-1.708-3.543a18.711 18.711 0 003.8-2.752v-8.191h-3.353zm2.882-11.861a43.469 43.469 0 014.776 5.694l-2.784 2.119a33.962 33.962 0 00-4.491-5.852zm11.514 3.353h-5.282v-2.625h18.5v2.625a25.308 25.308 0 01-5.882 3.321h6.673v14.96c0 2.246-1.3 2.625-2.562 2.625h-3.732l-.569-2.973h3.1c.728 0 .791-.411.791-.917v-1.549h-5.124v5.156h-2.942v-5.156h-5v5.439h-3V27.367h6.01a16.279 16.279 0 00-2.5-1.487zm-2.024 8.161h5v-2.278h-5zm0 4.744h5v-2.341h-5zm2.594-12.9c1.2.728 2.372 1.55 3.542 2.372a26.466 26.466 0 004.3-2.372zm5.345 8.161h5.124v-2.283h-5.124zm0 4.744h5.124v-2.346h-5.124z" fill="#707070"/><path data-name="パス 60971" d="M207.39 27.397h11.672v12.019h-8.509c-.19 5.441-.759 7.971-2.562 10.565l-2.784-2.309c.791-1.329 2.183-3.669 2.183-9.172zm12.842-2.91h-14.36v-3.1h14.36zm-9.679 11.734h5.346v-5.756h-5.346zm24.608-13.031c-2.341.981-5.156 1.771-10.5 2.277v4.554h10.627v3.163h-3.448v16.8h-3.258v-16.8h-3.921c.032 2.91-.032 10.944-4.239 16.67l-2.94-2.278c3.922-4.27 3.922-11.165 3.922-12.431V22.621a31 31 0 0011.7-2.436z" fill="#707070"/><path data-name="パス 60972" d="M242.405 39.606h-2.91V22.621h2.91zm16.131-4.049c0 10.565-8.667 12.3-16.732 12.81l-.854-2.751c8.539-.412 14.613-1.8 14.613-9.869V22.114h2.973z" fill="#707070"/><path data-name="パス 60973" d="M273.653 23.569c-1.551 13.6-5.852 20.5-8.034 24.007l-2.781-1.491c1.961-3.037 6.389-9.8 7.813-22.963zm13.474 23.438a74.622 74.622 0 00-7.622-22.773l2.657-1.265a73.962 73.962 0 018.065 23.279z" fill="#707070"/><path data-name="パス 60974" d="M298.65 32.486a59.77 59.77 0 0014.739-5.219l1.3 2.657a76.274 76.274 0 01-16.039 5.318v6.989c0 2.277.568 2.53 4.174 2.53h8.126a40.537 40.537 0 007.085-.506l.158 2.847a50.3 50.3 0 01-6.927.411h-8.856c-4.713 0-6.674-.791-6.674-4.808V22.686h2.91zm15.783-11.893a29.027 29.027 0 013.226 5.947l-2.151 1.265a27.466 27.466 0 00-3.1-6.073zm4.84-1.487a26.4 26.4 0 013.195 5.978l-2.151 1.234a24.932 24.932 0 00-3.068-6.073z" fill="#707070"/><path data-name="パス 60975" d="M328.284 39.606h-2.906V22.621h2.91zm16.131-4.049c0 10.565-8.667 12.3-16.732 12.81l-.854-2.751c8.539-.412 14.612-1.8 14.612-9.869V22.114h2.973z" fill="#707070"/><path data-name="パス 60976" d="M364.976 34.134a19.673 19.673 0 01-1.613 7.591c-2.436 4.966-8.1 6.295-10.786 6.832l-1.2-2.594c7.212-1.265 10.691-3.891 10.691-11.672v-.728h-12.4v-2.654h25.747v2.656h-10.439zm7.907-8.666h-20.652v-2.657h20.654z" fill="#707070"/><path data-name="長方形 163362" fill="#707070" d="M379.463 33.659h27.202v3.005h-27.202z"/><path data-name="パス 60977" d="M419.76 36.06a35.11 35.11 0 00-9.014-3.827l1.106-2.467a34.3 34.3 0 019.11 3.638zm-7.369 8.572c12.367-1.235 17.965-5.788 21.793-17.84l2.341 1.771c-4.492 13.067-10.345 17.336-23.534 19.171zm9.931-16.005a39.028 39.028 0 00-9.173-3.732l1.139-2.4a37.518 37.518 0 019.268 3.448z" fill="#707070"/><path data-name="パス 60978" d="M440.484 38.878v-2.4h14.2v-5.254h-14.489v-2.439h17.176v18.5h-17.46v-2.523h14.773v-5.884z" fill="#707070"/><path data-name="パス 60979" d="M471.92 30.812a37.79 37.79 0 00-9.742-4.554l1.423-2.53a39.7 39.7 0 019.9 4.428zm-9.078 13.728c16.005-.854 20.717-12.05 22.9-19.136l2.467 1.835c-1.518 4.492-6.579 19.262-24.8 20.464z" fill="#707070"/></g></svg>