<svg xmlns="http://www.w3.org/2000/svg" width="526" height="39.739"><defs><clipPath id="a"><path data-name="長方形 163611" fill="none" d="M0 0h526v39.739H0z"/></clipPath></defs><g data-name="グループ 84984" clip-path="url(#a)"><path data-name="パス 61257" d="M29.315 2.515c-5.844 0-7.03 6.31-7.03 6.31S20.682.007 11.79.007A9.188 9.188 0 002.241 8.82v.13c0 8.149 6.153 12.536 9.827 14.8 3.882 2.374 8.291 6.469 8.808 10.982 1.211-5.951 7.013-9.519 10.144-11.35a13.743 13.743 0 007.161-12.092 8.788 8.788 0 00-8.8-8.775h-.067zm-.627 20.325c-2.263 1.254-6.6 3.828-7.514 7.873-.392-3.067-3.423-6-6.228-7.622-2.655-1.521-7.1-4.521-7.1-10.029 0-2.44 2.112-6.076 6.9-6.076 6.429 0 7.364 6.1 7.364 6.1s1.06-4.379 5.3-4.379a6.181 6.181 0 016.42 5.926 9.288 9.288 0 01-5.168 8.216z" fill="#fc0"/><path data-name="パス 61258" d="M.077 20.477c-.543 6.193 1.862 12.9 5.051 15.8 4.508 4.1 9.743 3.243 12.749 2.282.142-3.009-.643-5.641-4.174-8.048C9.62 27.672 1.137 27.777.077 20.477" fill="#f93"/><path data-name="パス 61259" d="M37.446 26.451c.434 4.229-.885 8.909-3.44 10.865-3.615 2.808-7.973 2.156-10.378 1.5-.259-3.009.877-4.964 3.916-6.469 3.423-1.688 8.357-.192 9.9-5.892" fill="#f93"/><path data-name="パス 61260" d="M109.982 14.86a3.513 3.513 0 00-.776.084 4.265 4.265 0 011.052 5.934 4.5 4.5 0 01-1.052 1.053 3.58 3.58 0 001.561-6.987 3.1 3.1 0 00-.785-.084" fill="#f93"/><path data-name="パス 61261" d="M106.134 22.014a3.577 3.577 0 10-3.573-3.577v.05h-1.979v-3.711H97.05v3.711h-7.372v3.527h7.372v17.275h3.532V22.014zm0-4.705a1.119 1.119 0 11-.794.334 1.119 1.119 0 01.794-.334" fill="#f93"/><path data-name="パス 61262" d="M88.332 33.84v4.179c6.387-2.883 6.4-10.422 6.4-14.083H91.2c0 3.652-.267 7.706-2.864 9.9" fill="#f93"/><path data-name="パス 61263" d="M106.693 23.903h-3.532c0 3.694 0 11.341 6.579 14.158v-4.063c-2.78-2.156-3.047-6.293-3.047-10.1" fill="#f93"/><path data-name="パス 61264" d="M53.051 19.231v-4.455H49.52v4.455h-6.237v3.526h6.22c-.109 5.85-3.248 10.723-6.212 12.67v3.953c4.834-1.838 9.635-8.583 9.75-16.623h6.771v11.2c0 1.814-1.044 1.814-1.6 1.814h-4.843v3.519h4.842c3.123 0 5.135-2.106 5.135-5.349v-14.71z" fill="#f93"/><path data-name="パス 61265" d="M86.833 14.776h-4c-4.776 8.567-11.981 10.3-16.756 11.007v3.569a29 29 0 0010.493-3.255v13.2h3.532V23.643a26.175 26.175 0 006.731-8.867" fill="#f93"/><path data-name="パス 61266" d="M133.786 20.225h-14.195a24.272 24.272 0 001.161-5.449h-3.557c-.568 4.822-2.814 9.076-5.393 10.505v3.794a11.242 11.242 0 006.162-5.315h8.29c-.351 5.382-2.5 11.533-10.386 11.993v3.535c8.349-.393 13.358-6.009 13.918-15.537h3.966z" fill="#f93"/><path data-name="パス 61267" d="M147.321 30.09c-.678 5.334-2.712 8-8.524 9.5l-.968-2.57c5.037-.8 6.708-3.346 6.951-7.079zm-7.895-13.285h2.567v12.8h-2.567zm5.691.7h14.119v11.493h-14.119zm2.446 4.63h9.251v-2.4h-9.251zm0 4.631h9.251v-2.568h-9.251zm5.885 3.176v6.424c0 .485.363.654.751.654h2.93c.678 0 .726-.533.775-.825a91.41 91.41 0 00.242-2.811l2.567.63c-.339 4.679-.678 5.382-2.906 5.382h-4.48c-.46 0-2.422 0-2.422-1.819v-7.632z" fill="#707070"/><path data-name="パス 61268" d="M162.063 24.151v-1.94h5.28c-.073-.315-.387-1.746-.46-2.059h-3.439v-1.916h8.719v-1.43h2.518v1.43h8.67v1.916h-3.294a18.38 18.38 0 01-.557 2.059h5.206v1.941zm20.634 1.139v7.442h-8.138v1.166h8.792v1.843h-8.791v1.137h10.147v2.012h-22.644v-2.012h10.123v-1.139h-8.766v-1.841h8.766v-1.165h-8.064v-7.442zm-16.178 2.934h5.667V26.94h-5.667zm0 2.836h5.667v-1.309h-5.667zm2.809-10.836c.195.679.34 1.285.509 1.987h7.12c.121-.435.363-1.4.484-1.987zm5.231 8h5.74V26.94h-5.74zm0 2.836h5.74v-1.309h-5.74z" fill="#707070"/><path data-name="パス 61269" d="M208.556 19.932a27.463 27.463 0 01-3.245 3.418 37.7 37.7 0 003.705 1.77l-.993 2.278c-1.283-.606-2.059-.969-3.512-1.769v1.6h-3.124v2.74h6.757v2.278h-6.757v3.9c0 .508.218.582.654.582h3.123c1.017 0 1.065-.606 1.186-2.909l2.446.315c-.363 3.418-.508 4.946-2.64 4.946h-5.061c-1.09 0-2.156-.219-2.156-1.649v-5.185h-3.775c-.823 4.486-4.48 6.45-7.895 7.273l-1.211-2.448c3.754-.436 6.3-2.521 6.66-4.825h-6.154v-2.278h6.4v-2.74h-2.761v-1.454a32.169 32.169 0 01-3.249 1.718l-1.19-2.276a21.875 21.875 0 004.19-1.964 44.888 44.888 0 00-2.858-2.4l1.38-1.26h-.212v-2.086h10.486a13.165 13.165 0 001.6 2.133 27.536 27.536 0 002.81-2.812l1.937 1.164a38.593 38.593 0 01-3.124 3.176 16.756 16.756 0 001.4 1.019 29.758 29.758 0 003.269-3.371zm-19.47-.339a33.952 33.952 0 012.881 2.3 18.98 18.98 0 002.592-2.3zm14.192 5.332a26.185 26.185 0 01-5.983-5.232 24.461 24.461 0 01-5.813 5.235zm-4.336 2.3h-3.584v2.739h3.584z" fill="#707070"/><path data-name="パス 61270" d="M210.101 26.163h4.5v7.588c1.526 2.861 4.5 2.861 5.546 2.861h12.835l-.557 2.351h-12.25a10.167 10.167 0 01-3.609-.678 5.361 5.361 0 01-2.47-2.086 14.722 14.722 0 01-3.391 3.443l-1.041-2.909a9.4 9.4 0 002.47-1.77v-6.425H210.1zm1.816-8.994a19.8 19.8 0 013.439 4.267l-2.155 1.479a30.5 30.5 0 00-3.1-4.315zm19.762 2.836h-6.224v1.431h7.12V23.4h-2.737a19.855 19.855 0 01-.75 2.012h2.93V27.4h-6.563v1.43h6.055v1.866h-6.055v1.479h6.975v2.061h-6.975v1.7h-2.517v-1.7h-7.119v-2.062h7.119v-1.479h-6.126v-1.866h6.126v-1.43h-6.71V25.41h3.1a14.279 14.279 0 00-.582-2.012h-3.123v-1.963h7.315v-1.431h-6.3v-1.987h6.3v-1.164h2.519v1.164h6.224zM221.193 23.4c.266.824.387 1.309.557 2.012h4.888a16.084 16.084 0 00.654-2.012z" fill="#707070"/><path data-name="パス 61271" d="M255.648 39.472c-5.206-.824-8.427-2.158-10.486-3.442a29.733 29.733 0 01-10.075 3.539l-1.138-2.74a27.394 27.394 0 008.96-2.424 20.228 20.228 0 01-4.456-5.261l2.035-1.285a18.379 18.379 0 004.746 5.091 22.18 22.18 0 005.086-5.576h-14.628v-2.375h8.331v-3.176h-10.1v-2.424h10.1v-2.643h2.445v2.643h10.2v2.425h-10.2V25h6.83v2.425a26.142 26.142 0 01-5.813 6.957 22.577 22.577 0 009.13 2.353z" fill="#707070"/><path data-name="パス 61272" d="M257.648 29.508a22.924 22.924 0 002.979-.775v-5.359h-2.761v-2.278h2.761v-4.218h2.521v4.218h2.01v2.278h-2.01v4.51c.581-.218 1.017-.412 1.792-.752l-.072 2.449a10.566 10.566 0 01-1.72.824v7.321a1.686 1.686 0 01-1.792 1.891h-3.1l-.267-2.5h2.035c.508 0 .605-.145.605-.727v-5.04a18.943 18.943 0 01-2.761.825zm13.562 0a12.048 12.048 0 01-.387 1.552h8.331v1.842a9.577 9.577 0 01-2.858 3.442 13.56 13.56 0 004.675.776l-1.114 2.5a19.8 19.8 0 01-5.809-1.894 22.4 22.4 0 01-5.014 1.891l-.944-2.4a12.4 12.4 0 003.729-.873 6.538 6.538 0 01-1.864-1.939l1.961-1.067a5.425 5.425 0 002.059 1.891 8.132 8.132 0 002.543-2.328h-6.345a20.534 20.534 0 01-4.6 6.715l-1.768-1.672a17.594 17.594 0 005.037-8.437h-3.438v-2.035h3.778c.048-.583.073-.873.1-1.527h-3.366v-2.037h9.881a28.921 28.921 0 002.106-4.267l2.277.873a21.226 21.226 0 01-1.72 3.394h1.671v2.037h-8.549c0 .654-.024.944-.048 1.527h9.082v2.036zm8.961-10.521a56.311 56.311 0 01-14.26 1.621l-.751-2.3c7.339-.048 10.875-.485 14.095-1.552zm-11.335 1.672a24.007 24.007 0 01.945 2.715l-2.446.51a22.675 22.675 0 00-.968-2.691zm4.8-.266a17.446 17.446 0 01.775 2.837l-2.47.485a27.185 27.185 0 00-.847-2.837z" fill="#707070"/><path data-name="パス 61273" d="M289.132 28.199a2.882 2.882 0 11-2.882-2.861 2.89 2.89 0 012.882 2.861" fill="#707070"/><path data-name="パス 61274" d="M301.649 37.459a17.638 17.638 0 005.328-4 21.666 21.666 0 01-2.906-6.74 11.2 11.2 0 01-.946 1.309l-1.429-1.406c-.072 5.479-.12 9.5-.677 11.346-.485 1.55-1.332 1.625-2.665 1.625h-2.445l-.436-2.5h2.179c.387 0 .8-.023.993-.339.485-.848.582-6.328.63-9.26h-2.833a22.316 22.316 0 01-3.342 12.243l-1.646-2.425c2.154-3.03 2.615-6.618 2.615-10.594v-4.265h-2.228v-2.448h4.263v-3.152h2.518v3.152h3.9v2.448h-6.079v2.668h5.3c-.024.363-.024.485-.024.605a20.13 20.13 0 003.365-8.872l2.713.242a18.878 18.878 0 01-.871 3.515h7.676v2.448h-1.357a23 23 0 01-3.269 10.424 15.473 15.473 0 004.844 3.807l-1.478 2.3a15.53 15.53 0 01-4.892-4.121 21.921 21.921 0 01-5.207 4.241zm4.359-14.4a6.93 6.93 0 01-.388.824 22.059 22.059 0 002.834 7.467 23.654 23.654 0 002.276-8.291z" fill="#707070"/><path data-name="パス 61275" d="M323.947 23.23h-8.21v-2.207h8.21zm.291 8.17v-2.182h6.03v-1.794h-5.207V17.63h12.836v9.794h-5.377v1.794h6.1v2.181h-5.159a15.543 15.543 0 005.545 4.8l-1.283 2.328a16.7 16.7 0 01-5.207-5.213v6.255h-2.252v-6.327a19.3 19.3 0 01-5.764 5.285l-1.09-1.576v2.206h-6.926V31.69h6.926v4.727a17.066 17.066 0 005.813-5.018zm-.824-11.564h-6.926V17.63h6.926zm0 6.812h-6.926v-2.181h6.926zm0 3.539h-6.926v-2.182h6.926zm-2.2 3.612h-2.523v3.2h2.519zm9.058-14.182h-3.031v2.037h3.026zm0 3.758h-3.031v2.037h3.026zm5.449-3.758h-3.2v2.037h3.2zm0 3.758h-3.2v2.037h3.2z" fill="#707070"/><path data-name="パス 61276" d="M346.609 22.986a24.917 24.917 0 01-1.985 3.976v12.631h-2.446v-9.455a14.045 14.045 0 01-1.5 1.382l-1.114-2.764a16.243 16.243 0 004.843-6.593zm-7.023-1.115a13.828 13.828 0 004.7-5.164l2.2.8a17.559 17.559 0 01-5.861 6.74zm5.664 15.394a27.857 27.857 0 005.909-1.454 14.5 14.5 0 01-2.592-2.5 11.447 11.447 0 01-2.272 1.411l-1.307-2.134a11.074 11.074 0 005.182-4c-.872.025-3.173.122-4.359.073l-.169-2.181c.581 0 3.487-.073 4.165-.073.678-.7.751-.8 1.332-1.454a27.6 27.6 0 00-4.577-3.2l1.381-1.867c.459.267.775.461 1.186.727a20.266 20.266 0 002.64-3.927l2.494.922a39.981 39.981 0 01-3.269 4.29 17.342 17.342 0 011.647 1.358c1.477-1.7 2.93-3.394 4.286-5.188l2.519 1.019c-2.4 2.909-5.086 5.891-6.418 7.249 1.114-.024 2.495-.048 5.86-.315-.291-.461-.508-.727-1.55-2.181l1.962-1.141a25.018 25.018 0 013.536 5.576l-2.132 1.213c-.194-.436-.387-.873-.7-1.552-.847.073-6.757.485-7.168.509a10.53 10.53 0 01-.8 1.31h8.089v1.916a13.4 13.4 0 01-4.117 4.193 23.19 23.19 0 006.733 1.431l-.921 2.3a26.625 26.625 0 01-8.282-2.328 26.413 26.413 0 01-7.556 2.328zm4.989-5.43l-.048.048a22.415 22.415 0 003.487 2.788 14.235 14.235 0 003.512-2.837z" fill="#707070"/><path data-name="パス 61277" d="M367.963 20.489a15.345 15.345 0 01-2.761 2.837l-1.719-1.746a9.49 9.49 0 003.875-4.872l2.277.388a7.707 7.707 0 01-.46 1.285h5.594v2.109h-3.56a10.959 10.959 0 01.775 1.5l-2.422.969a16.768 16.768 0 00-.92-2.473zm7.386 2.134l-1.453-1.091a10.971 10.971 0 003.391-4.824l2.2.363c-.145.413-.242.7-.484 1.31h7.516v2.109h-4.771c.533.9.63 1.067.92 1.626l-2.276.944a40.986 40.986 0 00-1.163-2.57h-1.332a12.386 12.386 0 01-1.695 2.134h.194v1.188h8.67v2.23h-8.67v1.575h10.123v2.206h-4.384v1.649h4.19v2.158h-4.19v3.127c0 1.334 0 2.812-2.058 2.812h-4.529l-.387-2.424h3.633c.46 0 .726-.122.726-.849V33.63h-10.492a17.758 17.758 0 013.537 3.564l-1.938 1.672a23.233 23.233 0 00-3.508-3.782l1.622-1.454h-4.722v-2.158h15.5v-1.649h-15.745v-2.206h10.075v-1.576h-8.477v-2.23h8.477v-1.188z" fill="#707070"/><path data-name="パス 61278" d="M390.989 38.453l-.9-1.987c6.126-1.091 8.088-3.442 8.185-9.5h-9.494v-2.04h19.714v2.037h-7.992c-.194 7.055-2.834 10.109-9.518 11.491m12.956-17.673h-13.2v-2.062h13.2zm2.01-4.242a21.181 21.181 0 011.575 4.945l-1.817.631a20.59 20.59 0 00-1.429-5.019zm3.584-.412a21.323 21.323 0 011.5 4.969l-1.816.607a20.4 20.4 0 00-1.38-5.043z" fill="#707070"/><path data-name="パス 61279" d="M424.621 38.453h-2.325v-11.3a38.524 38.524 0 01-9.541 4.848l-1.069-2.008a36.115 36.115 0 0017.364-12.218l2.036 1.333a44.41 44.41 0 01-6.466 6.328z" fill="#707070"/><path data-name="パス 61280" d="M455.857 22.503v2.081h-4.19v3.079c0 8.922-7.774 10.351-11.406 10.788l-.8-2.109c6.854-.654 10.026-3.443 10.026-8.775v-2.983h-8.452v6.521h-2.2v-6.521h-4.093v-2.081h4.086v-4.51h2.2v4.51h8.452v-4.607h2.18v4.607z" fill="#707070"/><path data-name="長方形 163610" fill="#707070" d="M458.879 27.035h20.827v2.303h-20.827z"/><path data-name="パス 61281" d="M486.194 26.139a45.734 45.734 0 0011.285-4l.993 2.037a58.334 58.334 0 01-12.278 4.071v5.358c0 1.745.436 1.939 3.2 1.939h6.224a31.092 31.092 0 005.424-.387l.121 2.181a38.473 38.473 0 01-5.3.315h-6.781c-3.609 0-5.11-.606-5.11-3.685V18.623h2.222zm12.084-9.116a22.213 22.213 0 012.47 4.557l-1.647.97a21.083 21.083 0 00-2.373-4.655zm3.705-1.139a20.246 20.246 0 012.446 4.582l-1.646.945a19.166 19.166 0 00-2.349-4.654z" fill="#707070"/><path data-name="パス 61282" d="M522.392 19.156a26.171 26.171 0 01-4.625 9.964 95.116 95.116 0 018.234 7.274l-1.842 1.742a86.252 86.252 0 00-7.725-7.368 29.991 29.991 0 01-9.808 7.468l-1.307-1.794a25.428 25.428 0 009.052-6.546 24.957 24.957 0 005.159-8.679h-13.001v-2.061z" fill="#707070"/></g></svg>