<svg xmlns="http://www.w3.org/2000/svg" width="421.802" height="49.909"><defs><clipPath id="a"><path data-name="長方形 163338" fill="none" d="M0 0h421.802v49.909H0z"/></clipPath></defs><g data-name="グループ 84706" clip-path="url(#a)"><path data-name="パス 60821" d="M36.851 3.158c-7.347 0-8.837 7.924-8.837 7.924S25.999.009 14.822.009a11.545 11.545 0 00-12 11.066v.159c0 10.233 7.735 15.743 12.353 18.587 4.88 2.981 10.422 8.123 11.073 13.791C27.77 36.139 35.064 31.658 39 29.359a17.255 17.255 0 009.005-15.187A11.041 11.041 0 0036.933 3.158h-.084zm-.787 25.525c-2.844 1.574-8.3 4.807-9.446 9.887-.493-3.852-4.3-7.536-7.83-9.572-3.337-1.911-8.931-5.678-8.931-12.598 0-3.065 2.655-7.63 8.68-7.63 8.081 0 9.257 7.662 9.257 7.662s1.333-5.5 6.665-5.5a7.767 7.767 0 018.074 7.444 11.662 11.662 0 01-6.5 10.317z" fill="#fc0"/><path data-name="パス 60822" d="M.1 25.713c-.682 7.777 2.34 16.194 6.35 19.836 5.667 5.153 12.248 4.072 16.026 2.865.178-3.778-.808-7.084-5.248-10.107C12.093 34.749 1.429 34.874.1 25.713" fill="#f93"/><path data-name="パス 60823" d="M47.074 33.217c.546 5.311-1.113 11.188-4.324 13.644-4.545 3.526-10.023 2.707-13.05 1.879-.325-3.778 1.1-6.234 4.922-8.123 4.3-2.12 10.506-.241 12.447-7.4" fill="#f93"/><path data-name="パス 60824" d="M138.257 18.66a4.42 4.42 0 00-.976.1 5.353 5.353 0 011.322 7.452 5.65 5.65 0 01-1.322 1.322 4.5 4.5 0 101.963-8.774 3.9 3.9 0 00-.987-.1" fill="#f93"/><path data-name="パス 60825" d="M133.421 27.644a4.492 4.492 0 10-4.492-4.492v.063h-2.487v-4.66h-4.44v4.66h-9.267v4.429h9.267v21.694h4.44V27.644zm0-5.909a1.406 1.406 0 11-1 .42 1.406 1.406 0 011-.42" fill="#f93"/><path data-name="パス 60826" d="M111.041 42.495v5.248c8.029-3.621 8.039-13.088 8.039-17.685h-4.439c0 4.586-.336 9.677-3.6 12.437" fill="#f93"/><path data-name="パス 60827" d="M134.121 30.017h-4.44c0 4.639 0 14.242 8.27 17.779v-5.1c-3.493-2.709-3.83-7.905-3.83-12.679" fill="#f93"/><path data-name="パス 60828" d="M66.69 24.149v-5.594h-4.44v5.594h-7.84v4.427h7.819c-.136 7.347-4.083 13.466-7.809 15.911v4.964c6.077-2.307 12.112-10.775 12.259-20.875h8.512v14.066c0 2.277-1.312 2.277-2.015 2.277h-6.088v4.419h6.087c3.925 0 6.455-2.645 6.455-6.717V24.149z" fill="#f93"/><path data-name="パス 60829" d="M109.153 18.555h-5.027C98.12 29.313 89.065 31.496 83.062 32.376v4.482a36.479 36.479 0 0013.193-4.092v16.572h4.44V29.691a32.873 32.873 0 008.459-11.136" fill="#f93"/><path data-name="パス 60830" d="M168.179 25.398h-17.846a30.45 30.45 0 001.459-6.843h-4.471c-.714 6.056-3.537 11.4-6.78 13.193v4.765c2.76-.787 5.594-3.075 7.746-6.675h10.422c-.441 6.759-3.149 14.484-13.056 15.061v4.44c10.5-.493 16.793-7.546 17.5-19.511h4.98z" fill="#f93"/><path data-name="パス 60831" d="M173.221 46.98c1.354-2.361 2.613-5.2 2.613-12.468V21.257h25.66v8.437h-9.287v2.771H203.1v2.838h-10.893v2.991h8.563v10.922h-19.961V38.29h8.281v-2.987h-10.076c0 8.186-1.921 12.058-3.338 14.42zm25.093-22.922h-19.3v2.928h19.3zm-19.3 8.407h10.076v-2.771h-10.076zm18.576 8.5h-13.6v5.51h13.6z" fill="#707070"/><path data-name="パス 60832" d="M219.062 36.306l14.955-1.574.253 3.117-15.208 1.605v6.234c0 .6.441.6.661.6h8.659a.907.907 0 001.008-.819 38.4 38.4 0 00.22-4.219l3.432.85c-.126 4.754-.283 7.462-3.432 7.462h-10.829c-.819 0-3.023 0-3.023-2.331v-7.43l-10.83 1.165-.22-3.148 11.054-1.164v-3.81c-1.826.22-3.872.346-5.666.472l-1.04-3.212c2.424-.094 11.429-.409 18.64-2.959l1.637 2.959a46.573 46.573 0 01-10.271 2.331zm-1.165-16.088h3.275v2.771h12.25v7.525h-3.275v-4.377h-21.22v4.377h-3.306v-7.525H217.9z" fill="#707070"/><path data-name="パス 60833" d="M237.862 25.066a16.187 16.187 0 011.795 5.7l-2.643 1.293a23.726 23.726 0 00-1.543-5.762zm7.62 11.681l-1.1.693-1.416-2.141c-.662 8.565-2.015 11.272-4.345 14.452l-2.55-1.984c1.448-1.921 2.771-3.936 3.463-8.785-1.48.725-1.984.946-3.369 1.512l-.63-3.181c2.393-.661 2.928-.819 4.314-1.321.063-.882.094-2.2.094-2.866v-10.42h10.641v-2.393h3.243v2.393h11.555v2.739h-22.325v7.746c0 .693-.033 1.133-.063 1.542a19.908 19.908 0 002.267-1.164 11.629 11.629 0 00-1.417-1.418l1.732-1.51 1.6 1.6a14.226 14.226 0 002.3-2.171h-5.632v-2.422h7.146a14.913 14.913 0 00.724-1.795l3.18.347c-.378.756-.5 1.071-.724 1.447h11.209v2.425h-6.865a13.712 13.712 0 002.456 2.456 63.76 63.76 0 001.795-2.015l2.141 1.228a27.506 27.506 0 01-1.984 2.077 13.3 13.3 0 002.676 1.1l-1.384 2.522c-.724-.346-1.228-.567-1.921-.975v6.958h-6.958v4.281c0 1.921-1.228 2.047-2.141 2.047h-3.746l-.6-2.834h2.739c.5 0 .63-.094.63-.471v-3.022h-6.737zm4.155 8.879a19.5 19.5 0 01-6.58 3.778l-1.637-2.676c3.778-.976 5.164-2.267 5.951-3.023zm-1.323-8.373h11.146v-1.639h-11.146zm0 3.966h11.146V39.33h-11.146zm9.824-7.807a20.449 20.449 0 01-2.928-3.338h-2.55a20.068 20.068 0 01-2.927 3.338zm5.982 16.12a27.057 27.057 0 01-6.675-3.841l2.015-2.078a14.6 14.6 0 006.36 3.243z" fill="#707070"/><path data-name="パス 60834" d="M272.528 37.252a32.5 32.5 0 01-3.967 2.236l-1.794-2.992c5.257-1.889 6.894-3.557 7.84-4.533h-7.557v-2.362h13.191v-1.386h-10.893v-1.889h10.893v-1.354h-12.058v-2.361h6.833c-.126-.315-.882-1.732-1.04-2.047l3.465-.5a26.668 26.668 0 011.132 2.55h6.738a16.36 16.36 0 001.165-2.582l3.622.535a15.49 15.49 0 01-1.009 2.047h6.455v2.361h-12.123v1.354h10.989v1.886h-10.989V29.6h13.225v2.361h-6.549c.882 1.008 2.2 2.487 6.989 4.282l-1.669 3.023a25.7 25.7 0 01-5.038-3.213v6.77a22.3 22.3 0 001.763-2.078l2.709 1.7a34.277 34.277 0 01-3.9 3.558c2.3.316 3.967.409 5.352.5l-1.29 3.117c-8-.976-11.714-2.708-14.956-6.518h-4.5v3.306c3.81-.314 5.447-.567 6.676-.755v2.644a108.768 108.768 0 01-13.542 1.611l-.314-2.991c.882-.03 2.864-.126 4.155-.251zm3.022.22h11.965v-1.418H275.55zm0 3.494h11.965v-1.573H275.55zm4.786-6.989v-1.574h3.023v1.574h4.786a31.417 31.417 0 01-1.669-2.015h-8.47a12.214 12.214 0 01-1.542 2.015zm3.433 9.13a8.656 8.656 0 003.809 2.141 24.467 24.467 0 002.488-2.141z" fill="#707070"/><path data-name="パス 60835" d="M312.42 22.234v2.738h-4.6a10.537 10.537 0 01.976 1.985l-2.96 1.164a19.832 19.832 0 00-1.291-3.149h-.85a17.741 17.741 0 01-3.526 3.748l-2.3-2.2a14.356 14.356 0 005.038-6.518l3.086.6a8.76 8.76 0 01-.63 1.638zm2.078 6.989h12.661v5.982h-3.054v-3.369h-22.26v3.369h-2.991v-5.983h12.594v-1.51h1.825l-1.825-1.292a14.443 14.443 0 004.281-6.392l2.96.472a11.786 11.786 0 01-.566 1.733h9.536v2.738h-6.234a12.1 12.1 0 011.228 2.079l-2.9 1.228a28.529 28.529 0 00-1.573-3.307h-1.512a13.591 13.591 0 01-2.173 2.772zm8.722 3.936v6.9h-17.38v1.763h19.646v7.4h-22.763V33.158zm-17.379 4.534h14.232v-2.268H305.84zm0 9.037h16.5v-2.646h-16.5z" fill="#707070"/><path data-name="パス 60836" d="M328.924 44.304c.881-.252 1.1-.316 3.935-1.228v-8.6h-3.18v-3.179h3.18v-6.452h-3.463v-3.148h10.139v3.148h-3.432v6.452h2.9v3.179h-2.9v7.462c1.071-.378 1.952-.724 3.432-1.322v3.086a66.013 66.013 0 01-10.139 3.651zm11.68-23.173h17.505v15.081H350.9v3.149h7.524v2.928H350.9v3.589h8v3.019h-20.315v-3.019h9.225v-3.589h-7.4V39.36h7.4v-3.148h-7.21zm3.023 6.2h4.188v-3.334h-4.191zm0 6.077h4.188v-3.493h-4.191zm7.273-6.077h4.188v-3.334H350.9zm0 6.077h4.188v-3.493H350.9z" fill="#707070"/><path data-name="パス 60837" d="M371.834 36.621a38.312 38.312 0 01-3.684 1.606v8.343c0 3.275-2.424 3.275-3.149 3.275h-3.809l-.378-3.275h3.211c.6 0 .945-.03.945-.723v-6.518a41.2 41.2 0 01-4.188 1.071l-.441-3.086c1.385-.315 2.142-.472 4.628-1.165v-7.273h-4.408v-2.928h4.408v-5.667h3.18v5.667h3.306v2.927h-3.306v6.266c1.574-.6 2.3-.882 3.464-1.385zm17.064-13.192c-2.928 1.511-6.894 2.644-13.129 3.275v1.353c0 1.008.63 1.1 1.448 1.1h8.218c1.071 0 1.384 0 1.7-3.936l3.306.976c-.567 5.73-1.574 6.108-4.124 6.108h-10.043c-2.771 0-3.747-.819-3.747-3.149v-8.875h3.243v3.526a34.286 34.286 0 0011.555-3.15zm-.126 25.816H373.03V34.669h15.743zm-3.179-11.838h-9.446v3.213h9.446zm0 5.792h-9.446v3.275h9.446z" fill="#707070"/><path data-name="パス 60838" d="M412.609 40.022h-8.595c-4.628 0-6.171-1.826-7.021-2.8a37.146 37.146 0 01-4.125 3.306l-1.48-2.8a33.545 33.545 0 004.377-2.96v-3.94h-3.684v-2.8h6.769v7.558c.945 1.6 3.18 2.14 5.227 2.14h17.726l-.441 2.3h-5.51v1.448h5.258v2.393h-5.258v3.81a2.151 2.151 0 01-2.361 2.14h-5.2l-.5-2.99h4.346c.408 0 .471-.283.471-.661v-2.3h-13a35.941 35.941 0 015.258 3.18l-2.141 2.487a36.589 36.589 0 00-5.952-3.594l1.795-2.078h-6.486V41.47h20.528zm-18.576-19.741a51.092 51.092 0 015.321 2.991l-1.606 2.581a43.592 43.592 0 00-5.384-3.053zm6.392 1.7h4.848a15.856 15.856 0 00-1.133-1.7l3.085-.378a19.012 19.012 0 011.07 2.078h5.006a16.348 16.348 0 00.882-2.078l3.18.378a18.721 18.721 0 01-.882 1.7h4.628v2.3h-9.131a6.968 6.968 0 01-.6 1.322h8.186v10.924h-17.6V25.602h6.328a6.336 6.336 0 00.5-1.322h-8.374zm4.44 6.8h11.808v-1.417h-11.809zm0 2.96h11.808v-1.386h-11.809zm0 3.023h11.808v-1.512h-11.809z" fill="#707070"/></g></svg>