<svg xmlns="http://www.w3.org/2000/svg" width="453" height="49.932"><defs><clipPath id="a"><path data-name="長方形 163367" fill="none" d="M0 0h453v49.932H0z"/></clipPath></defs><g data-name="グループ 84776" clip-path="url(#a)"><path data-name="パス 61016" d="M36.869 3.16c-7.35 0-8.841 7.928-8.841 7.928S26.011.009 14.828.009a11.551 11.551 0 00-12.01 11.072v.164c0 10.238 7.739 15.751 12.359 18.6 4.883 2.982 10.427 8.127 11.078 13.8 1.523-7.476 8.82-11.96 12.758-14.259a17.264 17.264 0 009.009-15.194A11.046 11.046 0 0036.953 3.16h-.084zm-.788 25.54c-2.846 1.575-8.306 4.809-9.45 9.891-.494-3.854-4.305-7.539-7.833-9.576-3.339-1.911-8.936-5.681-8.936-12.6 0-3.066 2.657-7.634 8.684-7.634 8.085 0 9.261 7.665 9.261 7.665s1.334-5.5 6.668-5.5a7.771 7.771 0 018.075 7.445 11.668 11.668 0 01-6.5 10.322z" fill="#fc0"/><path data-name="パス 61017" d="M.1 25.726c-.686 7.78 2.338 16.2 6.349 19.845 5.671 5.155 12.251 4.074 16.034 2.866.179-3.78-.809-7.088-5.25-10.112C12.1 34.766 1.43 34.892.1 25.726" fill="#f93"/><path data-name="パス 61018" d="M47.096 33.232c.546 5.313-1.113 11.193-4.326 13.65-4.547 3.528-10.028 2.709-13.052 1.88-.326-3.78 1.1-6.237 4.925-8.127 4.305-2.121 10.511-.242 12.453-7.4" fill="#f93"/><path data-name="パス 61019" d="M138.324 18.668a4.423 4.423 0 00-.977.105 5.355 5.355 0 011.323 7.455 5.652 5.652 0 01-1.323 1.323 4.5 4.5 0 101.964-8.778 3.906 3.906 0 00-.987-.105" fill="#f93"/><path data-name="パス 61020" d="M133.482 27.656a4.494 4.494 0 10-4.494-4.494v.063h-2.489v-4.662h-4.442v4.662h-9.272v4.431h9.272v21.7h4.442v-21.7zm0-5.912a1.407 1.407 0 11-1 .42 1.407 1.407 0 011-.42" fill="#f93"/><path data-name="パス 61021" d="M111.094 42.515v5.25c8.033-3.623 8.043-13.094 8.043-17.693h-4.443c0 4.589-.336 9.681-3.6 12.443" fill="#f93"/><path data-name="パス 61022" d="M134.182 30.031h-4.442c0 4.641 0 14.249 8.274 17.788v-5.1c-3.492-2.714-3.832-7.911-3.832-12.688" fill="#f93"/><path data-name="パス 61023" d="M66.721 24.16v-5.6H62.28v5.6h-7.844v4.431h7.823c-.137 7.35-4.085 13.472-7.812 15.919v4.967c6.08-2.31 12.117-10.784 12.264-20.885h8.516v14.07c0 2.279-1.313 2.279-2.016 2.279h-6.09v4.421h6.09c3.927 0 6.458-2.646 6.458-6.72V24.16z" fill="#f93"/><path data-name="パス 61024" d="M109.206 18.563h-5.03C98.17 29.326 89.108 31.51 83.102 32.392v4.484a36.5 36.5 0 0013.2-4.1v16.58h4.442V29.704a32.889 32.889 0 008.463-11.141" fill="#f93"/><path data-name="パス 61025" d="M168.259 25.409h-17.85a30.466 30.466 0 001.46-6.846H147.4c-.714 6.059-3.539 11.4-6.783 13.2v4.767c2.762-.788 5.6-3.077 7.749-6.678h10.427c-.441 6.762-3.15 14.49-13.062 15.068v4.442c10.5-.494 16.8-7.55 17.5-19.52h4.988z" fill="#f93"/><path data-name="パス 61026" d="M173.114 36.355c2.615-1.86 6.395-6.426 7.56-10.237h-6.9v-3.054h13.04v-2.836h3.435v2.836h12.79v3.056h-21.514l2.646.725a28.631 28.631 0 01-3.624 6.615v16.409h-3.244V37.364c-1.071 1.07-1.607 1.512-2.237 2.048zm7.844.662a18.8 18.8 0 008.284-10.868l3.245.788a19.148 19.148 0 01-1.008 2.8h10.143v2.741a36.945 36.945 0 01-2.3 5.67 21.2 21.2 0 01-4 5.292 29.789 29.789 0 007.718 3.149l-1.418 3.277a30.48 30.48 0 01-8.82-4.315 27.874 27.874 0 01-9.45 4.315l-1.259-3.214a21.791 21.791 0 008.126-3.212 16.8 16.8 0 01-4.316-6.2c-1.2 1.164-2.015 1.826-2.772 2.457zm8.882-4.473a23.126 23.126 0 01-1.922 2.519 15.119 15.119 0 004.725 6.521 14.81 14.81 0 001.985-2.108 36.59 36.59 0 00-4.536-3.781l2.048-2.206a30.494 30.494 0 014.221 3.371 21.4 21.4 0 001.8-4.315z" fill="#707070"/><path data-name="パス 61027" d="M205.97 21.518h11.97v11.5h-8.851v16.756h-3.12zm3.12 4.663h5.8v-2.079h-5.8zm0 4.22h5.8v-2.076h-5.8zm17.765 16.1h-14.616v-11.69h14.615zm-11.654-6.961h8.663v-2.176h-8.663zm0 4.379h8.663v-2.271h-8.663zm14.868-10.9h-9.324v-11.5h12.47v25.293c0 .883 0 2.962-2.112 2.962h-4.82l-.5-3.15h3.56c.377 0 .725-.127.725-.756zm-6.269-6.836h6.269v-2.081H223.8zm0 4.22h6.269v-2.078H223.8z" fill="#707070"/><path data-name="パス 61028" d="M239.046 30.59a52.131 52.131 0 015.009 4.567 28.492 28.492 0 001.607-6.9h-9.608v-3.21h5.985v-4.788h3.339v4.788h5.513v3.212h-1.827a41.587 41.587 0 01-2.583 9.481 40 40 0 014.6 6.174l-2.709 2.111a42.785 42.785 0 00-3.434-5.008 27.9 27.9 0 01-7.182 8.189l-2.268-2.9a24.264 24.264 0 007.119-8.033 40.349 40.349 0 00-5.986-5.478zm14.617 1.481a38.684 38.684 0 014.22 8.379l-3.245 1.575a39.853 39.853 0 00-4-8.348zm9.26-11.812v5.827h2.646v3.371h-2.648v17.481c0 2.427-1.323 2.868-3.749 2.868h-4.82l-.851-3.214h4.946c1.008 0 1.071-.125 1.071-.788V29.456h-7.654v-3.37h7.657v-5.827z" fill="#707070"/><path data-name="パス 61029" d="M280.689 20.355h3.245v2.9h12.317v3.115h-23.373v10.615a32.282 32.282 0 01-.819 6.679 16.178 16.178 0 01-2.709 5.984l-2.552-2.519c.851-1.229 2.835-4.128 2.835-9.924V23.252h11.056zm-2.583 15.655c-.723 7.056-2.236 9.765-3.181 11.15l-2.583-1.638c.914-1.575 2.111-3.779 2.867-10.079zm3.15-9.167a35.814 35.814 0 017.088 4.725l-2.205 2.615a25.434 25.434 0 00-6.993-4.788zm-1.668 6.9h3.118v11.812c0 .723.378.723.976.723h2.741c.756 0 .914-.282 1.008-.693.126-.567.252-2.426.409-4.694l3.276.631c-.6 5.828-.819 7.78-3.843 7.78h-5.072c-.914 0-2.614-.284-2.614-2.268zm13.481.378a47.47 47.47 0 013.812 12.158l-3.4.882a38.945 38.945 0 00-3.686-11.906z" fill="#707070"/><path data-name="パス 61030" d="M311.56 38.274h-2.992v-7.243h-3.56a9.557 9.557 0 01-4.914 7.623l-2.016-2.834c3.434-1.765 3.78-3.812 3.938-4.789h-3.5v-2.834h3.528v-3.811h-3.056v-2.8h15.434v2.8h-2.867v3.812h3.308v2.834h-3.308v6.111h3.308v2.583h10.868v2.835H314.71v3.15h12.979v2.93H298.52v-2.93h13.04v-3.15h-11.087v-2.835h11.087zm-6.488-10.079h3.5v-3.809h-3.5zm11.843-6.174h3.119v11.053h-3.119zm6.71-1.575h3.213V34.78c0 1.261-.063 2.993-2.268 2.993h-4.725l-.6-2.993h3.686c.693 0 .693-.534.693-.851z" fill="#707070"/><path data-name="パス 61031" d="M341.613 28.323h-12.065v-2.8h12.065zm4.064-.914h-3.245v-3.087h5.638v-4.063h3.308v4.063h7.812v3.088h-10.426v4.441h9.355c-.189 10.206-.284 14.112-1.1 15.814-.819 1.637-2.456 2.016-4.535 2.016h-3.717l-.694-3.213h4.158c1.449 0 1.922-.537 2.142-1.292a74.86 74.86 0 00.693-10.269h-6.489c-.724 9.261-3.937 12.914-5.575 14.774l-2.399-1.955v1.513h-10.08v-9.8h10.08v7.781c2.237-2.394 5.072-6.08 5.072-16.16zm-5.074-3.716h-10.08v-2.8h10.08zm0 9.166h-10.08v-2.836h10.08zm0 4.662h-10.08v-2.835h10.08zm-2.8 4.631h-4.41v4.379h4.41z" fill="#707070"/><path data-name="パス 61032" d="M361.737 21.518h12.033v12h-8.946v16.318h-3.087zm3.15 4.852h5.8v-2.268h-5.8zm0 4.6h5.8v-2.459h-5.8zm17.425 15.555h-13.86V35.882h13.86zm-10.868-2.772h7.875v-5.161h-7.875zm14.584-10.238h-9.134v-12h12.317v25.61c0 2.646-1.354 2.708-2.4 2.708h-5.008l-.378-3.149h3.843c.725 0 .755-.41.755-.788zm-6.079-7.15h6.08v-2.263h-6.08zm0 4.6h6.08v-2.454h-6.08z" fill="#707070"/><path data-name="パス 61033" d="M420.018 33.551a33.375 33.375 0 01-13.355-10.048 32.526 32.526 0 01-13.293 9.86l-1.827-3.12c5.607-2.205 10.049-4.945 13.86-9.985h2.993c2.583 3.969 7.181 7.528 13.544 9.985zm-17.892-2.016v6.8c0 7.5-4.473 10.647-5.859 11.592l-2.678-2.457c2.079-1.575 5.355-4.032 5.355-9.293v-6.642zm12.316 18.239h-3.308V31.536h3.308z" fill="#707070"/><path data-name="パス 61034" d="M433.407 28.48h-10.331v-2.835h10.331zm4.221-3.056v-1.071h-4.221V21.77h4.221v-1.511h2.93v1.511h5.639v-1.511h2.963v1.511h3.622v2.583h-3.622v1.638h-2.961v-1.638h-5.639v1.638h-1.1a10.752 10.752 0 01-.536 1.292h3.717c.5-1.1.536-1.134.85-1.922l2.614.725c-.188.41-.408.883-.6 1.2h6.551v2.016h-6.836v1.323h6.14v1.67h-6.14v1.229h6.14v1.733h-6.14v1.479h7.559v2.016h-17.7v-6.087a10.96 10.96 0 01-1.355 1.2l-.977-1.323v.41h-8.631v-2.8h8.631v.788a18.264 18.264 0 004-5.764zm-4.883-1.606h-8.631v-2.773h8.631zm0 13.828h-8.631v-2.834h8.631zm5.639 4.662h-4.662v-2.393h17.419v2.394a25.118 25.118 0 01-4.661 3.748 28.253 28.253 0 006.52.693l-.755 3.087a37.155 37.155 0 01-9.482-1.952 35.49 35.49 0 01-8.978 1.952l-1.04-2.8v2.228h-8.631v-9.7h8.631v7.4a25.413 25.413 0 006.426-.849 14.411 14.411 0 01-3.182-2.615zm-8.379 0h-3.119v4.283h3.119zm12.632-13.01h-4.757v1.323h4.757zm0 2.993h-4.757v1.229h4.757zm0 2.961h-4.757v1.479h4.757zm-4.064 7.056a11.82 11.82 0 004.158 2.583 14.535 14.535 0 004.253-2.583z" fill="#707070"/></g></svg>