<svg xmlns="http://www.w3.org/2000/svg" width="361.432" height="50.266"><defs><clipPath id="a"><path data-name="長方形 163316" fill="none" d="M0 0h361.432v50.266H0z"/></clipPath></defs><g data-name="グループ 84675" clip-path="url(#a)"><path data-name="パス 60677" d="M37.092 3.179c-7.395 0-8.895 7.976-8.895 7.976S26.169.01 14.918.01A11.621 11.621 0 002.835 11.148v.165c0 10.3 7.786 15.846 12.434 18.709 4.912 3 10.49 8.177 11.145 13.881 1.532-7.522 8.874-12.032 12.835-14.346a17.368 17.368 0 009.062-15.286A11.113 11.113 0 0037.177 3.179h-.085zM36.3 28.871c-2.863 1.585-8.356 4.838-9.508 9.951-.5-3.877-4.331-7.585-7.881-9.634-3.36-1.923-8.99-5.716-8.99-12.677 0-3.085 2.673-7.68 8.736-7.68 8.134 0 9.317 7.712 9.317 7.712s1.342-5.536 6.708-5.536a7.818 7.818 0 018.124 7.49 11.739 11.739 0 01-6.539 10.384z" fill="#fc0"/><path data-name="パス 60678" d="M.1 25.881c-.687 7.828 2.356 16.3 6.391 19.966 5.7 5.187 12.328 4.1 16.131 2.884.18-3.8-.813-7.131-5.282-10.173C12.172 34.976 1.439 35.102.1 25.881" fill="#f93"/><path data-name="パス 60679" d="M47.382 33.434c.549 5.345-1.12 11.261-4.352 13.733-4.574 3.55-10.089 2.726-13.131 1.891-.327-3.8 1.109-6.275 4.955-8.177 4.331-2.134 10.575-.243 12.529-7.448" fill="#f93"/><path data-name="パス 60680" d="M139.162 18.781a4.449 4.449 0 00-.982.106 5.388 5.388 0 011.331 7.5 5.687 5.687 0 01-1.331 1.331 4.525 4.525 0 101.975-8.832 3.93 3.93 0 00-.993-.106" fill="#f93"/><path data-name="パス 60681" d="M134.293 27.824a4.521 4.521 0 10-4.521-4.521v.063h-2.5v-4.69h-4.473v4.69h-9.328v4.458h9.328V49.66h4.469V27.824zm0-5.948a1.416 1.416 0 11-1 .423 1.416 1.416 0 011-.423" fill="#f93"/><path data-name="パス 60682" d="M111.768 42.772v5.282c8.082-3.645 8.092-13.173 8.092-17.8h-4.469c0 4.616-.338 9.74-3.623 12.518" fill="#f93"/><path data-name="パス 60683" d="M135.001 30.213h-4.469c0 4.669 0 14.335 8.324 17.9v-5.14C135.338 40.247 135 35.018 135 30.212" fill="#f93"/><path data-name="パス 60684" d="M67.124 24.307v-5.631h-4.467v5.631h-7.891v4.458h7.87c-.137 7.395-4.109 13.554-7.86 16.015v5c6.117-2.324 12.191-10.849 12.339-21.012h8.567v14.153c0 2.292-1.321 2.292-2.028 2.292h-6.13v4.447h6.127c3.951 0 6.5-2.662 6.5-6.761V24.307z" fill="#f93"/><path data-name="パス 60685" d="M109.864 18.676h-5.06c-6.04 10.828-15.155 13.021-21.198 13.913v4.508a36.717 36.717 0 0013.279-4.12V49.66h4.469V29.884a33.088 33.088 0 008.51-11.208" fill="#f93"/><path data-name="パス 60686" d="M169.28 25.564h-17.959a30.649 30.649 0 001.468-6.888h-4.5c-.718 6.1-3.56 11.473-6.824 13.279v4.8c2.778-.792 5.631-3.1 7.8-6.719h10.488c-.444 6.8-3.169 14.578-13.142 15.159v4.469c10.564-.5 16.9-7.6 17.61-19.639h5.018z" fill="#f93"/><path data-name="パス 60687" d="M184.655 40.19c-1.141-1.457-1.775-2.281-2.757-3.707v13.624h-3.2V38.066a19.484 19.484 0 01-3.295 2.757l-1.269-3.391a22.79 22.79 0 007.891-9h-7.257v-2.853h3.93v-5.166h3.2v5.166h3.422v2.852a16.925 16.925 0 01-2.661 4.817 21.27 21.27 0 003.359 3.391v-1.774h17.4v14.609h-17.4V37.939zm19.807-16.225h-19.264v-2.63h19.267zm-2.092 9.254h-15.18v-7.577h15.179zm-9 4.12h-4.372v3.611h4.374zm0 5.957h-4.372v3.645h4.374zm6.023-15.275h-9.222v2.819h9.222zm1.046 9.317h-4.341v3.612h4.342zm0 5.957h-4.341v3.645h4.342z" fill="#707070"/><path data-name="パス 60688" d="M217.359 40.379a15.927 15.927 0 01-3.295-3.074V50.14h-3.136V37.69a31.179 31.179 0 01-4.089 2.884l-1.368-3.236c4.438-2.346 7.574-5.737 8.937-8.874h-8.43v-3.106h4.945v-4.944h3.136v4.944h3.739v3.106a18.886 18.886 0 01-3.041 5.324 12.4 12.4 0 004.216 3.612zm9.128-19.965h3.2v9.254h5.357v3.295h-5.357V45.83h6.117v3.233h-19.458V45.83h2.979V27.258h3.232V45.83h3.931z" fill="#707070"/><path data-name="パス 60689" d="M265.436 47.476a2.479 2.479 0 01-2.726 2.726h-4.215l-.379-3.3h3.232a.661.661 0 00.761-.729v-5.64h-7.922v9.38h-3.138v-9.38h-7.733a17.838 17.838 0 01-3.359 9.443l-2.6-2.916c.792-1.046 3.138-4.183 3.138-10.172V21.775h24.941zm-14.387-22.5h-7.353v4.627h7.353zm0 7.8h-7.353v4.659h7.353zm11.06-7.8h-7.922v4.627h7.922zm0 7.8h-7.922v4.659h7.922z" fill="#707070"/><path data-name="パス 60690" d="M268.607 47.129c1.553-.254 6.338-1.046 9.539-3.169l2.154 2.282a33.107 33.107 0 01-10.046 3.96zm.158-6.243h29.821v3.011h-29.821zm26.4-1.806H272.22V21.458h22.945zm-3.2-14.8h-16.514v2.314h16.512zm0 4.817h-16.514v2.282h16.512zm0 4.817h-16.514v2.345h16.512zm-2.409 10.015a22.1 22.1 0 009.254 3.106l-1.521 3.1a27.311 27.311 0 01-9.856-3.834z" fill="#707070"/><path data-name="パス 60691" d="M305.242 44.34a16.342 16.342 0 01-3.232 5.831l-2.313-2.031a11.938 11.938 0 002.757-5.071zm-4.151-22.976h10.49v21.168h-10.49zm3.073 6.022h4.375V24.31h-4.375zm0 5.957h4.375v-3.139h-4.375zm0 6.212h4.375v-3.361h-4.375zm6.118 8.747c.126-.19.285-.38.348-.475l-1.426.666c-.539-1.109-.729-1.426-2.439-4.31l2.756-1.014a54.1 54.1 0 012.06 3.2c2.345-4.088 2.472-10.237 2.472-12.517V21.363h15.909v3.106h-12.645v4.437h11.5v3.263c-.222 1.585-.919 6.782-3.708 10.87a19.24 19.24 0 005.293 3.993l-1.616 3.074a23.928 23.928 0 01-5.7-4.532 18.608 18.608 0 01-6.37 4.374l-1.648-2.852a13.964 13.964 0 006.053-4.057 25.875 25.875 0 01-3.454-9.7l3.011-.729a17.992 17.992 0 002.409 7.765 21.068 21.068 0 002.535-8.461h-8.3c.063 7.985-.887 13.215-4.183 18.285z" fill="#707070"/><path data-name="パス 60692" d="M343.464 37.495c-.54 7.891-3.233 10.457-10.87 12.771l-1.521-3.2c5.99-1.394 8.9-2.916 8.874-9.825zm-12.043-14.737h13.31v-2.376h3.359v2.376h13.279v3.139H348.09v2.376h11.5v2.815h-26.331v-2.816h11.472v-2.376h-13.31zm.761 10.33h28.331V39.3h-3.391v-3.358h-21.581v3.359h-3.358zm29.25 9.888a17.026 17.026 0 01-.824 4.754 2.871 2.871 0 01-2.662 1.87h-6.623c-.952 0-2.885-.285-2.885-2.5v-9.795h3.264v8.43c0 .444.032.761.6.761h4.69c.222 0 .57-.254.7-.792.158-.635.349-3.042.413-3.518z" fill="#707070"/></g></svg>