<svg xmlns="http://www.w3.org/2000/svg" width="295.809" height="50.233"><defs><clipPath id="a"><path data-name="長方形 163336" fill="none" d="M0 0h295.809v50.233H0z"/></clipPath></defs><g data-name="グループ 84704" clip-path="url(#a)"><path data-name="パス 60791" d="M37.231 3.191c-7.422 0-8.928 8.006-8.928 8.006S26.267.01 14.974.01A11.664 11.664 0 002.846 11.19v.165c0 10.338 7.815 15.905 12.48 18.779 4.931 3.011 10.529 8.207 11.187 13.933 1.538-7.55 8.907-12.077 12.883-14.4a17.433 17.433 0 009.1-15.343 11.155 11.155 0 00-11.18-11.133h-.085zm-.8 25.788c-2.874 1.591-8.387 4.856-9.543 9.988-.5-3.891-4.347-7.613-7.91-9.67-3.367-1.93-9.016-5.737-9.016-12.725 0-3.1 2.683-7.709 8.769-7.709 8.165 0 9.352 7.741 9.352 7.741s1.347-5.556 6.733-5.556a7.847 7.847 0 018.154 7.518 11.783 11.783 0 01-6.564 10.423z" fill="#fc0"/><path data-name="パス 60792" d="M.1 25.979c-.692 7.856 2.362 16.36 6.413 20.04 5.726 5.206 12.374 4.114 16.192 2.895.18-3.817-.816-7.157-5.3-10.211C12.217 35.108 1.444 35.235.1 25.979" fill="#f93"/><path data-name="パス 60793" d="M47.558 33.559c.551 5.365-1.124 11.3-4.369 13.785-4.591 3.566-10.126 2.735-13.184 1.898-.329-3.817 1.113-6.3 4.973-8.207 4.347-2.142 10.614-.244 12.576-7.475" fill="#f93"/><path data-name="パス 60794" d="M139.682 18.852a4.466 4.466 0 00-.986.106 5.408 5.408 0 011.336 7.528 5.708 5.708 0 01-1.338 1.337 4.542 4.542 0 101.983-8.865 3.944 3.944 0 00-1-.106" fill="#f93"/><path data-name="パス 60795" d="M134.793 27.929a4.538 4.538 0 10-4.538-4.538v.064h-2.513v-4.709h-4.485v4.708h-9.363v4.475h9.363v21.917h4.485V27.929zm0-5.97a1.421 1.421 0 11-1.008.424 1.421 1.421 0 011.008-.424" fill="#f93"/><path data-name="パス 60796" d="M112.185 42.929v5.3c8.112-3.658 8.122-13.223 8.122-17.867h-4.485c0 4.634-.339 9.776-3.637 12.565" fill="#f93"/><path data-name="パス 60797" d="M135.504 30.326h-4.485c0 4.687 0 14.389 8.356 17.962v-5.154c-3.531-2.736-3.87-7.984-3.87-12.809" fill="#f93"/><path data-name="パス 60798" d="M67.377 24.398v-5.652h-4.485v5.652h-7.921v4.475h7.9c-.138 7.422-4.125 13.6-7.889 16.075v5.019c6.139-2.333 12.236-10.89 12.385-21.09h8.6v14.204c0 2.3-1.325 2.3-2.036 2.3h-6.15v4.464h6.148c3.966 0 6.521-2.672 6.521-6.786V24.398z" fill="#f93"/><path data-name="パス 60799" d="M110.276 18.746h-5.079C99.134 29.615 89.983 31.82 83.918 32.711v4.528a36.854 36.854 0 0013.329-4.135v16.742h4.485v-19.85a33.212 33.212 0 008.546-11.25" fill="#f93"/><path data-name="パス 60800" d="M169.912 25.659h-18.026a30.764 30.764 0 001.474-6.913h-4.517c-.721 6.118-3.573 11.515-6.85 13.329v4.814c2.789-.8 5.652-3.107 7.825-6.744h10.529c-.445 6.829-3.181 14.633-13.191 15.216v4.485c10.6-.5 16.966-7.624 17.676-19.712h5.037z" fill="#f93"/><path data-name="パス 60801" d="M187.077 29.226h-11.78v-2.738h11.78zm3.968-.892h-3.168v-3.018h5.5v-3.963h3.23v3.963h7.627v3.015h-10.18v4.337h9.135c-.184 9.965-.277 13.78-1.077 15.441-.8 1.6-2.4 1.967-4.428 1.967h-3.63l-.676-3.137h4.06c1.415 0 1.876-.523 2.091-1.262a73.058 73.058 0 00.676-10.026h-6.336c-.707 9.042-3.845 12.611-5.444 14.424l-2.338-1.907v1.476h-9.842v-9.56h9.842v7.6c2.184-2.338 4.952-5.938 4.952-15.779zm-4.952-3.63h-9.842v-2.736h9.842zm0 8.95h-9.842v-2.766h9.842zm0 4.552h-9.842V35.44h9.842zm-2.737 4.521h-4.306v4.275h4.306z" fill="#707070"/><path data-name="パス 60802" d="M206.719 22.586h11.746v11.715h-8.735v15.933h-3.014zm3.076 4.737h5.659v-2.217h-5.659zm0 4.49h5.659v-2.4h-5.659zm17.008 15.195h-13.538v-10.4h13.533zm-10.611-2.707h7.69v-5.048h-7.69zm14.24-10h-8.92V22.586h12.026v25c0 2.584-1.322 2.646-2.337 2.646h-4.891l-.369-3.076h3.753c.707 0 .738-.4.738-.769zm-5.936-6.981h5.936v-2.214h-5.936zm0 4.49h5.936v-2.4h-5.936z" fill="#707070"/><path data-name="パス 60803" d="M263.245 26.709v2.338h-13.35c-.214.645-.491 1.29-.615 1.567h15.81v2.523h-16.974a31.039 31.039 0 01-.892 1.568h15.132v14.883h-20.088v-9.35a25.831 25.831 0 01-4.921 3.321l-1.631-2.891a22.031 22.031 0 009.012-7.536h-8.519v-2.523h9.965c.154-.337.431-.892.676-1.567h-8.766v-2.333h9.532c.154-.555.215-.862.369-1.54-2.306.063-5.259.155-9.012.063l-.584-2.645c1.322.031 2.369.06 4.091.06a143.857 143.857 0 0014.394-.707c1.783-.215 2.953-.368 4.614-.707l1.139 2.522a71.238 71.238 0 01-11.532 1.254 17.2 17.2 0 01-.461 1.692zm-17.9 10.518v1.723h13.9v-1.819h-13.81zm13.9 3.906h-13.9v1.876h13.9zm0 4.123h-13.9v1.907h13.9z" fill="#707070"/><path data-name="パス 60804" d="M276.678 29.38H266.59v-2.764h10.088zm4.121-2.984v-1.045h-4.121v-2.522h4.121v-1.477h2.861v1.477h5.506v-1.477h2.891v1.477h3.537v2.522h-3.537v1.6h-2.891v-1.6h-5.506v1.6h-1.077a10.56 10.56 0 01-.523 1.265h3.63c.492-1.077.523-1.108.83-1.876l2.553.706c-.186.4-.4.861-.585 1.17h6.4v1.968h-6.675v1.292h6v1.63h-6v1.2h6v1.692h-6v1.445h7.382v1.97h-17.287V33.47a10.787 10.787 0 01-1.322 1.171l-.953-1.293v.4h-8.428V31.01h8.428v.769a17.827 17.827 0 003.905-5.628zm-4.766-1.568h-8.428v-2.712h8.428zm0 13.5h-8.428v-2.766h8.428zm5.505 4.552h-4.552v-2.336h17.009v2.338a24.535 24.535 0 01-4.552 3.659 27.6 27.6 0 006.366.678l-.738 3.015a36.316 36.316 0 01-9.258-1.908 34.69 34.69 0 01-8.766 1.908l-1.015-2.738v2.183h-8.428v-9.472h8.428v7.227a24.781 24.781 0 006.274-.83 14.079 14.079 0 01-3.107-2.553zm-8.182 0h-3.045v4.183h3.045zm12.334-12.7h-4.644v1.293h4.644zm0 2.921h-4.644v1.2h4.644zm0 2.892h-4.644v1.445h4.644zm-3.968 6.89a11.517 11.517 0 004.06 2.523 14.175 14.175 0 004.152-2.523z" fill="#707070"/></g></svg>