<svg xmlns="http://www.w3.org/2000/svg" xmlns:xlink="http://www.w3.org/1999/xlink" width="298.289" height="50.232" viewBox="0 0 298.289 50.232">
  <defs>
    <clipPath id="clip-path">
      <rect id="長方形_163296" data-name="長方形 163296" width="298.289" height="50.232" fill="none"/>
    </clipPath>
  </defs>
  <g id="グループ_84660" data-name="グループ 84660" clip-path="url(#clip-path)">
    <path id="パス_60594" data-name="パス 60594" d="M36.874,3.173c-7.38,0-8.878,7.96-8.878,7.96S25.972.01,14.744.01A11.6,11.6,0,0,0,2.684,11.127l0,.059v.105c0,10.28,7.771,15.815,12.41,18.672,4.9,2.994,10.47,8.161,11.123,13.854,1.529-7.507,8.856-12.009,12.81-14.318a17.334,17.334,0,0,0,9.046-15.256A11.092,11.092,0,0,0,36.959,3.173h-.084Zm-.791,25.642c-2.857,1.582-8.34,4.829-9.489,9.932-.5-3.869-4.323-7.57-7.865-9.616-3.353-1.919-8.972-5.7-8.972-12.652,0-3.079,2.667-7.665,8.719-7.665,8.118,0,9.3,7.7,9.3,7.7s1.339-5.525,6.7-5.525a7.8,7.8,0,0,1,8.108,7.475,11.716,11.716,0,0,1-6.526,10.364Z" transform="translate(0.146 0.001)" fill="#fc0"/>
    <path id="パス_60595" data-name="パス 60595" d="M.1,24.5c-.685,7.813,2.351,16.269,6.379,19.927,5.693,5.177,12.3,4.091,16.1,2.878.179-3.8-.812-7.117-5.272-10.153C12.148,33.577,1.436,33.7.1,24.5" transform="translate(0 1.332)" fill="#f93"/>
    <path id="パス_60596" data-name="パス 60596" d="M45.754,31.649c.548,5.335-1.118,11.239-4.344,13.706C36.845,48.9,31.341,48.076,28.3,47.243c-.327-3.8,1.107-6.263,4.945-8.161,4.323-2.13,10.554-.243,12.5-7.433" transform="translate(1.536 1.72)" fill="#f93"/>
    <path id="パス_60597" data-name="パス 60597" d="M131.783,17.779a4.44,4.44,0,0,0-.981.105,5.377,5.377,0,0,1,1.328,7.486A5.676,5.676,0,0,1,130.8,26.7a4.516,4.516,0,1,0,1.972-8.814,3.922,3.922,0,0,0-.991-.105" transform="translate(7.108 0.967)" fill="#f93"/>
    <path id="パス_60598" data-name="パス 60598" d="M128.193,26.81a4.513,4.513,0,1,0-4.513-4.513v.063h-2.5V17.679h-4.46V22.36h-9.31V26.81h9.31V48.6h4.46V26.81Zm0-5.936a1.413,1.413,0,1,1-1,.422,1.413,1.413,0,0,1,1-.422" transform="translate(5.837 0.961)" fill="#f93"/>
    <path id="パス_60599" data-name="パス 60599" d="M105.8,41.133V46.4c8.066-3.637,8.076-13.148,8.076-17.766h-4.46c0,4.607-.337,9.721-3.616,12.494" transform="translate(5.75 1.557)" fill="#f93"/>
    <path id="パス_60600" data-name="パス 60600" d="M128.022,28.6h-4.46c0,4.66,0,14.307,8.308,17.861V41.335c-3.511-2.72-3.848-7.939-3.848-12.736" transform="translate(6.715 1.555)" fill="#f93"/>
    <path id="パス_60601" data-name="パス 60601" d="M64.178,23.3v-5.62h-4.46V23.3H51.842v4.449H59.7c-.137,7.38-4.1,13.527-7.844,15.984v4.987c6.1-2.32,12.167-10.828,12.315-20.971h8.551V41.876c0,2.288-1.318,2.288-2.024,2.288H64.578V48.6h6.115c3.943,0,6.484-2.657,6.484-6.748V23.3Z" transform="translate(2.817 0.961)" fill="#f93"/>
    <path id="パス_60602" data-name="パス 60602" d="M105.353,17.679H100.3c-6.031,10.807-15.13,13-21.161,13.886v4.5A36.646,36.646,0,0,0,92.4,31.955V48.6h4.46V28.866a33.024,33.024,0,0,0,8.5-11.187" transform="translate(4.301 0.961)" fill="#f93"/>
    <path id="パス_60603" data-name="パス 60603" d="M161.673,24.553H143.749a30.591,30.591,0,0,0,1.466-6.874h-4.492c-.717,6.084-3.553,11.45-6.811,13.253v4.787c2.773-.791,5.62-3.089,7.781-6.706h10.47c-.443,6.79-3.163,14.55-13.116,15.13V48.6c10.543-.5,16.87-7.581,17.576-19.6h5.008Z" transform="translate(7.277 0.961)" fill="#f93"/>
    <path id="パス_60604" data-name="パス 60604" d="M165.518,31.484h6.547v8.35c0,4.017,4.017,5.282,7.022,5.282h16.32l-.664,3.131H178.961c-2.467,0-5.725-.664-7.591-3.637a21.529,21.529,0,0,1-4.586,4.555l-1.708-3.543a18.711,18.711,0,0,0,3.8-2.752V34.68h-3.353Zm2.878-11.86a43.466,43.466,0,0,1,4.776,5.693l-2.783,2.119a33.961,33.961,0,0,0-4.49-5.852Zm11.513,3.353h-5.282V20.351h18.5v2.625a25.307,25.307,0,0,1-5.882,3.321h6.673v14.96c0,2.246-1.3,2.625-2.562,2.625h-3.732l-.569-2.973h3.1c.727,0,.791-.411.791-.917V38.444h-5.124V43.6h-2.942V38.444h-5v5.439h-3V26.3h6.01a16.279,16.279,0,0,0-2.5-1.487Zm-2.024,8.161h5V28.86h-5Zm0,4.743h5V33.54h-5Zm2.594-12.9c1.2.727,2.372,1.55,3.542,2.372a26.465,26.465,0,0,0,4.3-2.372Zm5.344,8.161h5.124V28.86h-5.124Zm0,4.743h5.124V33.54h-5.124Z" transform="translate(8.971 1.067)" fill="#707070"/>
    <path id="パス_60605" data-name="パス 60605" d="M196.807,26.356h11.672V38.374h-8.509c-.19,5.44-.759,7.971-2.562,10.565l-2.783-2.309c.791-1.328,2.182-3.669,2.182-9.172Zm12.842-2.91h-14.36v-3.1h14.36ZM199.971,35.18h5.346V29.424h-5.346Zm24.607-13.031c-2.341.981-5.156,1.771-10.5,2.277V28.98H224.7v3.163h-3.448v16.8H218v-16.8h-3.921c.032,2.91-.032,10.944-4.238,16.669L206.9,46.535c3.922-4.27,3.922-11.164,3.922-12.431V21.58a31,31,0,0,0,11.7-2.436Z" transform="translate(10.577 1.041)" fill="#707070"/>
    <path id="パス_60606" data-name="パス 60606" d="M252.978,32.642a33.5,33.5,0,0,1-13.41-10.09,32.661,32.661,0,0,1-13.348,9.9l-1.835-3.131c5.63-2.214,10.09-4.966,13.917-10.027h3c2.594,3.985,7.211,7.56,13.6,10.027Zm-17.965-2.024V37.45c0,7.527-4.492,10.69-5.883,11.639l-2.689-2.467c2.088-1.582,5.377-4.049,5.377-9.331V30.618Zm12.366,18.313h-3.321V30.617h3.321Z" transform="translate(12.194 1.049)" fill="#707070"/>
    <path id="パス_60607" data-name="パス 60607" d="M264.79,27.55H254.416V24.7H264.79Zm4.238-3.069V23.4H264.79V20.812h4.238V19.294h2.942v1.518h5.662V19.294H280.6v1.518h3.636V23.4H280.6V25.05h-2.973V23.4H271.97V25.05h-1.107a10.791,10.791,0,0,1-.538,1.3h3.732c.506-1.106.538-1.139.854-1.929l2.624.727c-.189.411-.41.887-.6,1.2h6.578v2.024h-6.863V29.7h6.168v1.675h-6.168v1.234h6.168v1.74h-6.168v1.487h7.59V37.86H266.466v-6.1a11.009,11.009,0,0,1-1.36,1.2l-.981-1.328v.411h-8.667V29.225h8.667v.791a18.326,18.326,0,0,0,4.017-5.787Zm-4.9-1.612h-8.667V20.085h8.667Zm0,13.885h-8.667V33.906h8.667Zm5.662,4.681h-4.681v-2.4H282.6v2.4a25.225,25.225,0,0,1-4.68,3.764,28.369,28.369,0,0,0,6.546.7l-.758,3.1a37.308,37.308,0,0,1-9.521-1.96,35.635,35.635,0,0,1-9.015,1.96l-1.044-2.814v2.245h-8.667V38.682h8.667v7.433a25.477,25.477,0,0,0,6.453-.854,14.441,14.441,0,0,1-3.195-2.625Zm-8.414,0h-3.131v4.3h3.131Zm12.684-13.063h-4.776V29.7h4.776Zm0,3h-4.776v1.234h4.776Zm0,2.973h-4.776v1.487h4.776Zm-4.08,7.085a11.839,11.839,0,0,0,4.175,2.594,14.549,14.549,0,0,0,4.27-2.594Z" transform="translate(13.826 1.049)" fill="#707070"/>
  </g>
</svg>
