<svg xmlns="http://www.w3.org/2000/svg" width="295.261" height="50.232"><defs><clipPath id="a"><path data-name="長方形 163319" fill="none" d="M0 0h295.261v50.232H0z"/></clipPath></defs><g data-name="グループ 84689" clip-path="url(#a)"><path data-name="パス 60693" d="M37.162 3.186c-7.409 0-8.912 7.991-8.912 7.991S26.219.011 14.947.011A11.643 11.643 0 002.841 11.17v.165c0 10.319 7.8 15.876 12.457 18.744 4.921 3.006 10.51 8.192 11.166 13.907 1.533-7.535 8.893-12.055 12.858-14.372a17.4 17.4 0 009.08-15.313A11.134 11.134 0 0037.247 3.186h-.085zm-.794 25.74c-2.868 1.588-8.372 4.847-9.525 9.97-.5-3.884-4.339-7.6-7.9-9.652-3.366-1.926-9.007-5.726-9.007-12.7 0-3.09 2.678-7.694 8.753-7.694 8.15 0 9.335 7.726 9.335 7.726s1.344-5.546 6.721-5.546a7.833 7.833 0 018.139 7.5 11.761 11.761 0 01-6.551 10.4z" fill="#fc0"/><path data-name="パス 60694" d="M.1 25.931c-.688 7.843 2.36 16.331 6.4 20 5.715 5.2 12.351 4.107 16.162 2.889.18-3.81-.815-7.144-5.292-10.192C12.195 35.043 1.442 35.17.1 25.931" fill="#f93"/><path data-name="パス 60695" d="M47.471 33.497c.55 5.351-1.121 11.282-4.361 13.759-4.583 3.556-10.107 2.731-13.16 1.892-.328-3.81 1.111-6.287 4.964-8.192 4.339-2.138 10.594-.243 12.552-7.462" fill="#f93"/><path data-name="パス 60696" d="M139.423 18.817a4.458 4.458 0 00-.984.106 5.4 5.4 0 011.334 7.515 5.7 5.7 0 01-1.334 1.334 4.533 4.533 0 101.979-8.848 3.937 3.937 0 00-.995-.106" fill="#f93"/><path data-name="パス 60697" d="M134.544 27.878a4.53 4.53 0 10-4.53-4.53v.064h-2.508v-4.7h-4.477v4.7h-9.346v4.466h9.346v21.876h4.477V27.878zm0-5.959a1.418 1.418 0 11-1.007.423 1.418 1.418 0 011.007-.423" fill="#f93"/><path data-name="パス 60698" d="M111.977 42.854v5.292c8.1-3.651 8.107-13.2 8.107-17.834h-4.477c0 4.625-.339 9.758-3.63 12.542" fill="#f93"/><path data-name="パス 60699" d="M135.253 30.27h-4.477c0 4.678 0 14.362 8.34 17.929v-5.145c-3.524-2.731-3.863-7.97-3.863-12.785" fill="#f93"/><path data-name="パス 60700" d="M67.252 24.353v-5.641h-4.477v5.641h-7.906v4.466h7.885c-.138 7.409-4.117 13.579-7.874 16.045v5.006C61.008 47.542 67.094 39 67.242 28.819h8.585v14.183c0 2.3-1.323 2.3-2.032 2.3h-6.141v4.456h6.139c3.958 0 6.509-2.667 6.509-6.774V24.353z" fill="#f93"/><path data-name="パス 60701" d="M110.074 18.712h-5.07c-6.053 10.848-15.183 13.05-21.241 13.939v4.519a36.786 36.786 0 0013.3-4.128v16.712h4.477V29.941a33.151 33.151 0 008.531-11.229" fill="#f93"/><path data-name="パス 60702" d="M169.597 25.613h-17.992a30.708 30.708 0 001.471-6.9h-4.509c-.72 6.107-3.567 11.494-6.837 13.3v4.805c2.784-.794 5.641-3.1 7.811-6.731h10.51c-.445 6.816-3.175 14.606-13.166 15.188v4.477c10.584-.5 16.934-7.61 17.643-19.675h5.027z" fill="#f93"/><path data-name="パス 60703" d="M186.726 29.176h-11.759v-2.737h11.759zm3.96-.891h-3.162v-3.009h5.5v-3.964h3.224v3.964h7.604v3h-10.157v4.329h9.118c-.184 9.947-.276 13.755-1.075 15.412-.8 1.6-2.394 1.964-4.42 1.964h-3.623l-.675-3.132h4.053c1.412 0 1.872-.522 2.087-1.259a72.922 72.922 0 00.675-10.007h-6.324c-.706 9.025-3.838 12.587-5.434 14.4l-2.334-1.9v1.473h-9.824v-9.548h9.824v7.583c2.18-2.334 4.943-5.927 4.943-15.75zm-4.943-3.623h-9.824v-2.736h9.824zm0 8.934h-9.824v-2.767h9.824zm0 4.544h-9.824v-2.764h9.824zm-2.732 4.513h-4.3v4.267h4.3z" fill="#707070"/><path data-name="パス 60704" d="M206.336 22.544h11.727v11.7h-8.719v15.9h-3.008zm3.07 4.728h5.649v-2.21h-5.649zm0 4.481h5.649v-2.398h-5.649zm16.976 15.163h-13.507V36.538h13.507zm-10.591-2.7h7.675v-5.037h-7.674zm14.214-9.977h-8.9V22.544h12v24.955c0 2.579-1.32 2.641-2.333 2.641h-4.88l-.368-3.07h3.746c.706 0 .737-.4.737-.767zm-5.923-6.971h5.925v-2.21h-5.925zm0 4.481h5.925v-2.394h-5.925z" fill="#707070"/><path data-name="パス 60705" d="M263.125 34.267a32.515 32.515 0 01-13.017-9.791 31.7 31.7 0 01-12.956 9.609l-1.781-3.039c5.465-2.15 9.794-4.821 13.508-9.732h2.917c2.518 3.867 7 7.336 13.2 9.732zm-17.441-1.964v6.63c0 7.307-4.359 10.377-5.711 11.3l-2.609-2.4c2.027-1.535 5.219-3.93 5.219-9.057v-6.473zm12 17.775h-3.224V32.302h3.224z" fill="#707070"/><path data-name="パス 60706" d="M276.165 29.325h-10.069v-2.762h10.069zm4.113-2.978v-1.044h-4.113v-2.517h4.114v-1.474h2.856v1.474h5.5v-1.474h2.885v1.474h3.531v2.517h-3.531v1.6h-2.885v-1.6h-5.5v1.6h-1.074a10.54 10.54 0 01-.522 1.258h3.623c.491-1.075.522-1.106.829-1.872l2.549.7c-.185.4-.4.859-.584 1.167h6.386v1.964h-6.663v1.289h5.987v1.627h-5.987v1.2h5.987v1.689h-5.987v1.443h7.368v1.966h-17.255v-5.927a10.764 10.764 0 01-1.32 1.168l-.952-1.29v.4h-8.411v-2.733h8.412v.767a17.8 17.8 0 003.9-5.618zm-4.757-1.565h-8.412v-2.706h8.412zm0 13.477h-8.412v-2.764h8.412zm5.5 4.544h-4.544v-2.334h16.978v2.334a24.491 24.491 0 01-4.544 3.652 27.548 27.548 0 006.355.676l-.737 3.009a36.249 36.249 0 01-9.241-1.9 34.626 34.626 0 01-8.75 1.9l-1.013-2.733v2.179h-8.416v-9.454h8.412v7.214a24.735 24.735 0 006.262-.829 14.053 14.053 0 01-3.1-2.549zm-8.167 0h-3.04v4.173h3.04zm12.311-12.679h-4.636v1.29h4.636zm0 2.916h-4.636v1.2h4.636zm0 2.886h-4.636v1.443h4.636zm-3.96 6.877a11.5 11.5 0 004.053 2.518 14.149 14.149 0 004.145-2.518z" fill="#707070"/></g></svg>