<svg xmlns="http://www.w3.org/2000/svg" width="486.899" height="49.908"><defs><clipPath id="a"><path data-name="長方形 163361" fill="none" d="M0 0h486.899v49.908H0z"/></clipPath></defs><g data-name="グループ 84771" clip-path="url(#a)"><path data-name="パス 60940" d="M36.921 3.164c-7.361 0-8.854 7.939-8.854 7.939S26.048.009 14.85.009A11.567 11.567 0 002.822 11.1v.164c0 10.252 7.75 15.773 12.377 18.623C20.086 32.87 25.638 38.023 26.29 43.7c1.525-7.487 8.833-11.977 12.776-14.28a17.288 17.288 0 009.022-15.216 11.062 11.062 0 00-11.082-11.04h-.084zm-.789 25.573c-2.85 1.577-8.318 4.816-9.464 9.905-.494-3.859-4.311-7.55-7.844-9.59-3.344-1.914-8.949-5.689-8.949-12.618 0-3.07 2.66-7.645 8.7-7.645 8.1 0 9.275 7.676 9.275 7.676s1.335-5.51 6.677-5.51a7.782 7.782 0 018.086 7.455 11.685 11.685 0 01-6.509 10.337z" fill="#fc0"/><path data-name="パス 60941" d="M.1 25.762c-.683 7.792 2.345 16.225 6.362 19.874 5.678 5.163 12.271 4.08 16.057 2.871.179-3.786-.81-7.1-5.258-10.126C12.116 34.815 1.432 34.941.1 25.762" fill="#f93"/><path data-name="パス 60942" d="M47.163 33.28c.547 5.321-1.115 11.209-4.332 13.67-4.553 3.533-10.042 2.713-13.075 1.881-.326-3.786 1.1-6.246 4.932-8.139 4.311-2.124 10.526-.242 12.471-7.413" fill="#f93"/><path data-name="パス 60943" d="M138.521 18.695a4.429 4.429 0 00-.978.105 5.363 5.363 0 011.325 7.466 5.66 5.66 0 01-1.325 1.325 4.504 4.504 0 101.966-8.791 3.912 3.912 0 00-.988-.105" fill="#f93"/><path data-name="パス 60944" d="M133.674 27.696a4.5 4.5 0 10-4.5-4.5v.063h-2.492V18.59h-4.446v4.669h-9.285v4.437h9.285v21.736h4.448V27.696zm0-5.92a1.409 1.409 0 11-1 .421 1.409 1.409 0 011-.421" fill="#f93"/><path data-name="パス 60945" d="M111.253 42.576v5.258c8.044-3.628 8.055-13.113 8.055-17.718h-4.448c0 4.6-.336 9.7-3.607 12.461" fill="#f93"/><path data-name="パス 60946" d="M134.378 30.074h-4.448c0 4.648 0 14.269 8.286 17.813v-5.113c-3.5-2.713-3.838-7.918-3.838-12.7" fill="#f93"/><path data-name="パス 60947" d="M66.817 24.195v-5.6h-4.445v5.6h-7.858v4.437h7.834c-.137 7.361-4.09 13.491-7.823 15.941v4.974c6.088-2.313 12.135-10.8 12.282-20.915h8.528v14.091c0 2.282-1.314 2.282-2.019 2.282h-6.1v4.427h6.1c3.933 0 6.467-2.65 6.467-6.73V24.195z" fill="#f93"/><path data-name="パス 60948" d="M109.362 18.59h-5.037c-6.015 10.778-15.09 12.965-21.1 13.849v4.49a36.548 36.548 0 0013.218-4.1v16.6h4.448V29.747a32.936 32.936 0 008.475-11.157" fill="#f93"/><path data-name="パス 60949" d="M168.502 25.446h-17.877a30.509 30.509 0 001.462-6.856h-4.485c-.715 6.067-3.544 11.42-6.793 13.218v4.774c2.766-.789 5.6-3.081 7.76-6.688h10.442c-.442 6.772-3.155 14.511-13.081 15.09v4.448c10.515-.494 16.825-7.561 17.529-19.548h4.995z" fill="#f93"/><path data-name="パス 60950" d="M185.949 28.364h-12.082v-2.808h12.082zm4.069-.915h-3.249v-3.093h5.646v-4.068h3.312v4.068h7.823v3.093h-10.44v4.445h9.368c-.189 10.221-.284 14.133-1.1 15.836-.82 1.639-2.46 2.019-4.542 2.019h-3.722l-.7-3.218h4.164c1.451 0 1.924-.537 2.145-1.293a74.956 74.956 0 00.694-10.284h-6.5c-.726 9.275-3.942 12.933-5.583 14.8l-2.4-1.957v1.515h-10.089v-9.818h10.095v7.8c2.24-2.4 5.079-6.088 5.079-16.183zm-5.079-3.722h-10.094v-2.808h10.095zm0 9.179h-10.094v-2.84h10.095zm0 4.669h-10.094v-2.839h10.095zm-2.808 4.637h-4.416v4.382h4.416z" fill="#707070"/><path data-name="パス 60951" d="M206.107 21.549h12.051v12.019h-8.956v16.34h-3.092zm3.155 4.858h5.8v-2.271h-5.8zm0 4.606h5.8v-2.457h-5.8zm17.44 15.584h-13.88V35.934h13.88zm-10.883-2.776h7.887v-5.174h-7.887zm14.6-10.252h-9.147v-12.02h12.335v25.647c0 2.649-1.356 2.712-2.4 2.712h-5.005l-.379-3.154h3.849c.726 0 .756-.411.756-.789zm-6.087-7.161h6.088v-2.272h-6.088zm0 4.606h6.088v-2.458h-6.088z" fill="#707070"/><path data-name="パス 60952" d="M241.754 39.499h-2.9V22.56h2.9zm16.087-4.038c0 10.536-8.644 12.271-16.687 12.775l-.852-2.743c8.516-.411 14.573-1.8 14.573-9.841v-13.6h2.965z" fill="#707070"/><path data-name="パス 60953" d="M272.922 23.504c-1.547 13.565-5.836 20.442-8.013 23.942l-2.776-1.482c1.956-3.028 6.372-9.779 7.792-22.9zm13.438 23.375a74.422 74.422 0 00-7.6-22.712l2.65-1.262a73.772 73.772 0 018.038 23.217z" fill="#707070"/><path data-name="パス 60954" d="M297.844 32.401a59.61 59.61 0 0014.7-5.205l1.293 2.65a76.071 76.071 0 01-15.993 5.3v6.972c0 2.271.567 2.523 4.163 2.523h8.107a40.433 40.433 0 007.066-.5l.158 2.839a50.164 50.164 0 01-6.909.409h-8.832c-4.7 0-6.656-.789-6.656-4.794V22.623h2.9zm15.74-11.861a28.976 28.976 0 013.218 5.931l-2.146 1.263a27.416 27.416 0 00-3.091-6.057zm4.827-1.483a26.353 26.353 0 013.186 5.962l-2.141 1.231a24.865 24.865 0 00-3.06-6.057z" fill="#707070"/><path data-name="パス 60955" d="M327.404 39.499h-2.9V22.56h2.9zm16.087-4.038c0 10.536-8.644 12.271-16.687 12.775l-.852-2.743c8.516-.411 14.573-1.8 14.573-9.841v-13.6h2.965z" fill="#707070"/><path data-name="パス 60956" d="M363.992 34.042a19.615 19.615 0 01-1.6 7.573c-2.429 4.953-8.076 6.278-10.757 6.815l-1.2-2.587c7.189-1.265 10.657-3.884 10.657-11.644v-.726h-12.364v-2.648h25.678v2.649h-10.414zm7.885-8.644h-20.6v-2.65h20.6z" fill="#707070"/><path data-name="長方形 163360" fill="#707070" d="M378.444 33.568h27.129v2.997h-27.129z"/><path data-name="パス 60957" d="M418.633 35.966a34.979 34.979 0 00-8.99-3.817l1.1-2.461a34.208 34.208 0 019.085 3.627zm-7.349 8.549c12.333-1.231 17.917-5.774 21.734-17.792l2.334 1.766c-4.48 13.029-10.316 17.287-23.47 19.117zm9.9-15.962a38.924 38.924 0 00-9.148-3.722l1.136-2.4a37.417 37.417 0 019.243 3.439z" fill="#707070"/><path data-name="パス 60958" d="M439.297 38.774v-2.4h14.163v-5.235h-14.447v-2.432h17.13v18.457h-17.414V44.64h14.731v-5.866z" fill="#707070"/><path data-name="パス 60959" d="M470.653 30.728a37.688 37.688 0 00-9.716-4.542l1.42-2.524a39.63 39.63 0 019.874 4.416zm-9.054 13.691c15.962-.852 20.662-12.018 22.838-19.083l2.461 1.829c-1.514 4.48-6.562 19.211-24.731 20.409z" fill="#707070"/></g></svg>