<svg xmlns="http://www.w3.org/2000/svg" width="297.604" height="49.933"><defs><clipPath id="a"><path data-name="長方形 163368" fill="none" d="M0 0h297.604v49.933H0z"/></clipPath></defs><g data-name="グループ 84779" clip-path="url(#a)"><path data-name="パス 61035" d="M36.916 3.164c-7.36 0-8.853 7.938-8.853 7.938S26.045.009 14.848.009A11.565 11.565 0 002.822 11.1v.164c0 10.251 7.749 15.77 12.375 18.62 4.889 2.986 10.44 8.138 11.092 13.815 1.524-7.486 8.831-11.975 12.774-14.278A17.285 17.285 0 0048.081 14.2 11.06 11.06 0 0037 3.164h-.084zm-.789 25.569c-2.849 1.577-8.316 4.815-9.462 9.9-.494-3.859-4.311-7.549-7.843-9.588-3.344-1.91-8.947-5.685-8.947-12.613 0-3.07 2.66-7.643 8.695-7.643 8.1 0 9.273 7.675 9.273 7.675s1.335-5.509 6.676-5.509a7.781 7.781 0 018.085 7.454 11.683 11.683 0 01-6.508 10.335z" fill="#fc0"/><path data-name="パス 61036" d="M.1 25.759c-.687 7.79 2.341 16.222 6.357 19.87 5.677 5.162 12.269 4.079 16.054 2.87.179-3.785-.81-7.1-5.257-10.125C12.114 34.81 1.432 34.936.1 25.759" fill="#f93"/><path data-name="パス 61037" d="M47.152 33.275c.547 5.32-1.114 11.208-4.332 13.668-4.548 3.532-10.036 2.712-13.068 1.883-.326-3.785 1.1-6.245 4.931-8.138 4.311-2.124 10.524-.242 12.469-7.412" fill="#f93"/><path data-name="パス 61038" d="M138.499 18.693a4.428 4.428 0 00-.978.105 5.362 5.362 0 011.325 7.465 5.659 5.659 0 01-1.325 1.325 4.503 4.503 0 001.966-8.789 3.911 3.911 0 00-.988-.105" fill="#f93"/><path data-name="パス 61039" d="M133.651 27.693a4.5 4.5 0 10-4.5-4.5v.063h-2.492v-4.668h-4.442v4.668h-9.284v4.437h9.284v21.732h4.447V27.693zm0-5.919a1.409 1.409 0 11-1 .421 1.409 1.409 0 011-.421" fill="#f93"/><path data-name="パス 61040" d="M111.235 42.572v5.257c8.043-3.627 8.053-13.111 8.053-17.716h-4.447c0 4.594-.336 9.694-3.606 12.459" fill="#f93"/><path data-name="パス 61041" d="M134.356 30.069h-4.447c0 4.647 0 14.267 8.285 17.81v-5.11c-3.5-2.713-3.837-7.917-3.837-12.7" fill="#f93"/><path data-name="パス 61042" d="M66.806 24.192v-5.6h-4.443v5.6h-7.858v4.437h7.833c-.137 7.36-4.09 13.489-7.822 15.939v4.973c6.087-2.313 12.133-10.8 12.28-20.912h8.527v14.088c0 2.281-1.314 2.281-2.019 2.281h-6.1v4.426h6.1c3.932 0 6.466-2.649 6.466-6.729v-18.5z" fill="#f93"/><path data-name="パス 61043" d="M109.344 18.588h-5.036c-6.014 10.777-15.087 12.963-21.1 13.846v4.489a36.542 36.542 0 0013.216-4.1v16.6h4.441v-19.68a32.931 32.931 0 008.474-11.155" fill="#f93"/><path data-name="パス 61044" d="M168.473 25.443H150.6a30.5 30.5 0 001.461-6.855h-4.482c-.715 6.066-3.543 11.418-6.792 13.216v4.773c2.765-.789 5.6-3.081 7.759-6.687h10.44c-.442 6.771-3.154 14.509-13.079 15.087v4.447c10.514-.494 16.822-7.559 17.526-19.545h4.994z" fill="#f93"/><path data-name="パス 61045" d="M175.037 21.263h11.986v10.691h-8.895v17.853h-3.091zm3.154 4.258h5.835v-1.924h-5.835zm0 4.037h5.835v-1.987h-5.835zm5.614 10.188a3.629 3.629 0 00.032-.568v-2.739h-3.5v-2.623h16.748v2.623h-3.091v3.312h3.689v2.586h-3.689v7.033h-3v-7.038h-4.51a11.55 11.55 0 01-4.51 6.97l-2.082-2.238a8.843 8.843 0 003.47-4.731h-3.69v-2.587zm7.191-3.312h-4.226v3.311h4.226zm-.82-15.171h12.142v25.863a2.334 2.334 0 01-2.366 2.681h-4.446l-.6-3.185h3.533c.536 0 .757-.19.757-.632V31.954h-9.02zm3.091 4.258h5.867v-1.924h-5.867zm0 4.037h5.867v-1.987h-5.867z" fill="#707070"/><path data-name="パス 61046" d="M232.851 49.365a29.2 29.2 0 01-11.418-6.244v6.623h-3.186v-6.591c-2.019 1.765-4.731 3.911-11.385 6.181l-1.637-2.806c6.529-1.988 9.242-3.881 10.661-4.89h-10.695V39.02h13.057v-1.893h-10.85V34.7h10.85v-1.893h-11.513v-2.586h6.4a15.185 15.185 0 00-.852-2.46h-7.1v-2.713h4.952c-.221-.473-1.23-2.618-1.83-3.911l3.281-.946a25.608 25.608 0 011.891 4.857h1.924v-4.636h3.091v4.637h2.744v-4.637h3.091v4.637h2.05a34.3 34.3 0 001.748-4.862l3.279.946a25.948 25.948 0 01-1.735 3.911h4.856v2.713h-7.16c-.158.41-.757 2.113-.883 2.46h6.78v2.59h-11.828v1.892h11.1v2.428h-11.1v1.892h13.091v2.618h-10.694a27.453 27.453 0 0010.849 4.857zm-9.715-19.144a13 13 0 00.757-2.46h-8.264c.158.347.725 2.082.883 2.46z" fill="#707070"/><path data-name="パス 61047" d="M264.612 49.744c-6.781-1.073-10.975-2.807-13.656-4.479a38.762 38.762 0 01-13.121 4.6l-1.482-3.565a35.665 35.665 0 0011.67-3.153 26.333 26.333 0 01-5.8-6.843l2.649-1.672a23.943 23.943 0 006.182 6.623 28.852 28.852 0 006.623-7.254h-19.05v-3.09h10.85v-4.124h-13.156v-3.158h13.153v-3.442h3.185v3.438h13.279v3.162h-13.28v4.132h8.895v3.154a34.027 34.027 0 01-7.569 9.051 29.4 29.4 0 0011.89 3.059z" fill="#707070"/><path data-name="パス 61048" d="M267.232 36.78a29.407 29.407 0 003.88-1.009v-6.97h-3.6v-2.965h3.6v-5.487h3.279v5.487h2.618v2.965h-2.618v5.866c.757-.284 1.326-.536 2.334-.978l-.094 3.186a13.721 13.721 0 01-2.24 1.072v9.524a2.193 2.193 0 01-2.335 2.461h-4.037l-.347-3.249h2.649c.662 0 .789-.188.789-.945v-6.56a24.629 24.629 0 01-3.6 1.071zm17.662 0a15.534 15.534 0 01-.5 2.019h10.85v2.4a12.47 12.47 0 01-3.722 4.479 17.61 17.61 0 006.086 1.009l-1.452 3.245a25.834 25.834 0 01-7.569-2.46 29.236 29.236 0 01-6.531 2.46l-1.23-3.123a16.155 16.155 0 004.857-1.135 8.523 8.523 0 01-2.429-2.522l2.555-1.388a7.066 7.066 0 002.681 2.459 10.57 10.57 0 003.312-3.028h-8.264a26.7 26.7 0 01-5.993 8.737l-2.3-2.175a22.9 22.9 0 006.561-10.977h-4.479v-2.649h4.92c.063-.757.095-1.135.126-1.987h-4.387v-2.649h12.87a37.432 37.432 0 002.744-5.55l2.965 1.135a27.536 27.536 0 01-2.239 4.415h2.176v2.649h-11.135c0 .852-.032 1.23-.063 1.987h11.828v2.648zm11.67-13.693c-3.312 1.041-10.976 2.145-18.578 2.113l-.978-3c9.557-.063 14.162-.63 18.356-2.019zm-14.761 2.177a31.317 31.317 0 011.23 3.532l-3.186.663a29.348 29.348 0 00-1.262-3.5zm6.245-.348a22.723 22.723 0 011.008 3.695l-3.217.631a35.509 35.509 0 00-1.1-3.69z" fill="#707070"/></g></svg>