<svg xmlns="http://www.w3.org/2000/svg" width="361.432" height="50.233"><defs><clipPath id="a"><path data-name="長方形 163315" fill="none" d="M0 0h361.432v50.233H0z"/></clipPath></defs><g data-name="グループ 84674" clip-path="url(#a)"><path data-name="パス 60661" d="M37.115 3.181c-7.4 0-8.9 7.981-8.9 7.981S26.185.01 14.928.01A11.628 11.628 0 002.837 11.155v.165c0 10.306 7.79 15.856 12.442 18.72 4.915 3 10.5 8.182 11.152 13.89 1.533-7.526 8.879-12.04 12.843-14.355a17.379 17.379 0 009.07-15.3 11.12 11.12 0 00-11.141-11.1h-.085zm-.793 25.708c-2.865 1.586-8.361 4.841-9.513 9.957-.5-3.879-4.334-7.59-7.886-9.64-3.361-1.924-9-5.719-9-12.685 0-3.087 2.674-7.685 8.742-7.685 8.139 0 9.323 7.716 9.323 7.716s1.342-5.539 6.712-5.539a7.823 7.823 0 018.129 7.495A11.746 11.746 0 0136.291 28.9z" fill="#fc0"/><path data-name="パス 60662" d="M.1 25.897c-.687 7.833 2.357 16.31 6.4 19.978 5.708 5.19 12.336 4.1 16.141 2.886.18-3.805-.814-7.135-5.285-10.179C12.179 34.997 1.44 35.124.1 25.897" fill="#f93"/><path data-name="パス 60663" d="M47.412 33.454c.55 5.349-1.12 11.268-4.355 13.742-4.577 3.552-10.095 2.727-13.139 1.892-.328-3.805 1.11-6.279 4.958-8.182 4.334-2.135 10.581-.243 12.537-7.452" fill="#f93"/><path data-name="パス 60664" d="M139.248 18.793a4.452 4.452 0 00-.983.106 5.391 5.391 0 011.332 7.505 5.69 5.69 0 01-1.332 1.332 4.528 4.528 0 101.977-8.837 3.932 3.932 0 00-.994-.106" fill="#f93"/><path data-name="パス 60665" d="M134.375 27.841a4.524 4.524 0 10-4.524-4.524v.063h-2.505v-4.693h-4.471v4.693h-9.334v4.461h9.334V49.69h4.471V27.841zm0-5.951a1.416 1.416 0 11-1.005.423 1.417 1.417 0 011.005-.423" fill="#f93"/><path data-name="パス 60666" d="M111.836 42.799v5.285c8.086-3.647 8.1-13.181 8.1-17.811h-4.471c0 4.619-.338 9.746-3.626 12.526" fill="#f93"/><path data-name="パス 60667" d="M135.083 30.231h-4.471c0 4.672 0 14.344 8.33 17.907v-5.139c-3.52-2.727-3.858-7.96-3.858-12.769" fill="#f93"/><path data-name="パス 60668" d="M67.168 24.321v-5.634h-4.472v5.634h-7.9v4.461h7.875c-.137 7.4-4.112 13.562-7.864 16.025v5c6.12-2.326 12.2-10.856 12.346-21.025h8.573v14.164c0 2.294-1.321 2.294-2.03 2.294h-6.127v4.45H73.7c3.953 0 6.5-2.664 6.5-6.765v-18.6z" fill="#f93"/><path data-name="パス 60669" d="M109.935 18.687h-5.063C98.826 29.522 89.703 31.72 83.657 32.608v4.514a36.74 36.74 0 0013.287-4.123V49.69h4.471V29.902a33.109 33.109 0 008.52-11.215" fill="#f93"/><path data-name="パス 60670" d="M169.384 25.579h-17.97a30.669 30.669 0 001.469-6.892h-4.5c-.719 6.1-3.562 11.48-6.829 13.287v4.8c2.78-.793 5.634-3.1 7.8-6.723h10.5c-.444 6.807-3.171 14.587-13.15 15.169v4.471c10.571-.5 16.913-7.6 17.621-19.651h5.015z" fill="#f93"/><path data-name="パス 60671" d="M184.768 40.213c-1.142-1.459-1.776-2.283-2.759-3.71v13.635h-3.2v-12.05a19.391 19.391 0 01-3.3 2.759l-1.27-3.393a22.8 22.8 0 007.9-9.006h-7.262v-2.854h3.928v-5.169h3.2v5.169h3.424v2.854a16.936 16.936 0 01-2.663 4.82 21.239 21.239 0 003.361 3.393v-1.775h17.409v14.616h-17.404v-11.54zm19.819-16.236h-19.282v-2.632h19.279zm-2.093 9.26h-15.189v-7.58h15.189zm-9.006 4.123h-4.376v3.615h4.376zm0 5.961h-4.376v3.647h4.376zm6.026-15.284h-9.228v2.822h9.228zm1.046 9.323h-4.344v3.615h4.344zm0 5.961h-4.344v3.647h4.344z" fill="#707070"/><path data-name="パス 60672" d="M217.497 40.402a15.936 15.936 0 01-3.3-3.076V50.17h-3.14V37.708a31.2 31.2 0 01-4.092 2.886l-1.364-3.234c4.441-2.348 7.579-5.741 8.943-8.879h-8.435v-3.108h4.948v-4.947h3.14v4.947h3.741v3.108a18.9 18.9 0 01-3.043 5.328 12.412 12.412 0 004.219 3.614zm9.134-19.977h3.2v9.26h5.36v3.3h-5.36v12.873h6.12v3.234h-19.47v-3.234h2.981V27.275h3.235v18.583h3.933z" fill="#707070"/><path data-name="パス 60673" d="M265.599 47.506a2.481 2.481 0 01-2.727 2.727h-4.218l-.379-3.3h3.234a.662.662 0 00.761-.729v-5.642h-7.927v9.386h-3.139v-9.386h-7.738a17.846 17.846 0 01-3.361 9.449l-2.6-2.917c.793-1.045 3.139-4.186 3.139-10.178V21.789h24.955zm-14.4-22.514h-7.357v4.63h7.357zm0 7.8h-7.357v4.662h7.357zm11.066-7.8h-7.927v4.63h7.927zm0 7.8h-7.927v4.662h7.927z" fill="#707070"/><path data-name="パス 60674" d="M268.772 47.159c1.554-.254 6.342-1.046 9.545-3.171l2.155 2.283a33.126 33.126 0 01-10.053 3.963zm.159-6.247h29.84v3.013h-29.84zm26.416-1.808h-22.96V21.472h22.959zm-3.2-14.809h-16.526v2.314h16.522zm0 4.82h-16.526v2.283h16.522zm0 4.82h-16.526v2.347h16.522zm-2.415 10.024a22.108 22.108 0 009.26 3.108l-1.522 3.107a27.328 27.328 0 01-9.862-3.836z" fill="#707070"/><path data-name="パス 60675" d="M307.46 30.605h-3.2v-3.3a16.065 16.065 0 01-2.822 1.681l-1.522-3.013a15.09 15.09 0 007.166-5.74l2.917 1.268a16.613 16.613 0 01-2.536 3.076zm1.648-3.679l-.158-2.822 6.913-.317a17.5 17.5 0 01-1.365-3.139l3.108-.539a19.478 19.478 0 001.714 3.552l5.073-.222a15.7 15.7 0 00-2.854-1.649l1.712-2a22.329 22.329 0 013.964 2.283l-1.046 1.268 3.806-.159.126 2.791-8.624.412a8.688 8.688 0 004.914 2.41c.7 0 .888-.507 1.173-2.156l2.855 1.268c-.6 3.552-1.523 4.218-3.394 4.059v13.51h-5.264a23.35 23.35 0 008.467 1.744l-1.3 3.013c-5.423-.634-8.117-1.9-9.957-2.949l1.554-1.808h-10.624l1.46 1.808a28.216 28.216 0 01-9.862 2.917l-1.172-2.886a27.911 27.911 0 008.117-1.839h-5.042V31.619h21.686a13.818 13.818 0 01-7.419-5.074zm14.682 7.1h-17.154v1.681h17.152zm0 3.583h-17.154v1.744h17.152zm0 3.646h-17.154v1.713h17.152z" fill="#707070"/><path data-name="パス 60676" d="M353.948 37.581c.1-1.3.1-2.7.1-3.964h-18.49a72.968 72.968 0 003.486-13.286l3.266.349c-.126.825-.254 1.521-.57 3.107h17.948v3.11h-18.645c-.285 1.237-.572 2.188-1.016 3.647h17.506c0 1.078-.16 5.93-.191 7.04h4.091v3.171h-4.313c-.634 6.151-1.459 9.355-5.708 9.355h-6.152l-.571-3.2h6.025c2.22 0 2.442-1.744 2.981-6.151h-21.912v-3.178z" fill="#707070"/></g></svg>