<svg xmlns="http://www.w3.org/2000/svg" width="297.813" height="49.909"><defs><clipPath id="a"><path data-name="長方形 163357" fill="none" d="M0 0h297.813v49.909H0z"/></clipPath></defs><g data-name="グループ 84769" clip-path="url(#a)"><path data-name="パス 60906" d="M36.922 3.164c-7.361 0-8.854 7.939-8.854 7.939S26.049.009 14.85.009A11.567 11.567 0 002.822 11.1v.164c0 10.253 7.75 15.773 12.377 18.623 4.887 2.983 10.439 8.136 11.092 13.813 1.525-7.487 8.833-11.977 12.776-14.28a17.288 17.288 0 009.022-15.216 11.062 11.062 0 00-11.083-11.04h-.084zm-.784 25.574c-2.85 1.577-8.318 4.816-9.464 9.906-.494-3.859-4.311-7.55-7.845-9.59-3.344-1.914-8.949-5.689-8.949-12.619 0-3.071 2.66-7.645 8.7-7.645 8.1 0 9.275 7.676 9.275 7.676s1.335-5.51 6.677-5.51a7.782 7.782 0 018.086 7.455 11.685 11.685 0 01-6.509 10.337z" fill="#fc0"/><path data-name="パス 60907" d="M.1 25.763c-.684 7.792 2.345 16.225 6.362 19.874 5.678 5.163 12.272 4.08 16.057 2.871.179-3.786-.81-7.1-5.258-10.126C12.116 34.816 1.432 34.942.1 25.763" fill="#f93"/><path data-name="パス 60908" d="M47.164 33.28c.547 5.321-1.115 11.21-4.332 13.67-4.553 3.533-10.042 2.713-13.075 1.881-.326-3.786 1.1-6.246 4.932-8.139C39 38.568 45.215 40.45 47.16 33.279" fill="#f93"/><path data-name="パス 60909" d="M138.523 18.695a4.429 4.429 0 00-.978.105 5.363 5.363 0 011.325 7.466 5.661 5.661 0 01-1.325 1.325 4.504 4.504 0 101.966-8.791 3.912 3.912 0 00-.988-.105" fill="#f93"/><path data-name="パス 60910" d="M133.675 27.696a4.5 4.5 0 10-4.5-4.5v.063h-2.492V18.59h-4.446v4.669h-9.285v4.438h9.285v21.735h4.448V27.696zm0-5.92a1.409 1.409 0 11-1 .421 1.409 1.409 0 011-.421" fill="#f93"/><path data-name="パス 60911" d="M111.254 42.576v5.258c8.044-3.628 8.055-13.113 8.055-17.719h-4.448c0 4.6-.336 9.7-3.607 12.461" fill="#f93"/><path data-name="パス 60912" d="M134.379 30.074h-4.448c0 4.648 0 14.27 8.286 17.813v-5.113c-3.5-2.713-3.838-7.918-3.838-12.7" fill="#f93"/><path data-name="パス 60913" d="M66.817 24.195v-5.6h-4.445v5.6h-7.858v4.438h7.834c-.137 7.361-4.091 13.491-7.824 15.941v4.974c6.088-2.313 12.135-10.8 12.282-20.915h8.528v14.09c0 2.282-1.314 2.282-2.019 2.282h-6.1v4.427h6.1c3.933 0 6.467-2.65 6.467-6.73V24.195z" fill="#f93"/><path data-name="パス 60914" d="M109.363 18.59h-5.037c-6.015 10.778-15.09 12.966-21.1 13.849v4.49a36.548 36.548 0 0013.218-4.1v16.6h4.448V29.747a32.936 32.936 0 008.475-11.157" fill="#f93"/><path data-name="パス 60915" d="M168.503 25.446h-17.877a30.509 30.509 0 001.462-6.856h-4.48c-.715 6.067-3.544 11.42-6.793 13.218v4.774c2.766-.789 5.6-3.081 7.76-6.688h10.442c-.442 6.772-3.155 14.511-13.081 15.09v4.448c10.515-.494 16.825-7.561 17.529-19.548h4.995z" fill="#f93"/><path data-name="パス 60916" d="M185.95 28.364h-12.082v-2.808h12.082zm4.069-.915h-3.249v-3.093h5.646v-4.068h3.312v4.068h7.824v3.093h-10.441v4.445h9.368c-.189 10.221-.284 14.133-1.1 15.836-.82 1.639-2.46 2.019-4.542 2.019h-3.722l-.7-3.218h4.164c1.451 0 1.924-.537 2.145-1.293a74.959 74.959 0 00.694-10.284h-6.5c-.726 9.275-3.942 12.933-5.583 14.8l-2.4-1.957v1.515h-10.089v-9.818h10.095v7.8c2.24-2.4 5.079-6.088 5.079-16.183zm-5.079-3.722h-10.094v-2.808h10.095zm0 9.179h-10.094v-2.84h10.095zm0 4.669h-10.094v-2.839h10.095zm-2.808 4.637h-4.417v4.382h4.417z" fill="#707070"/><path data-name="パス 60917" d="M206.109 21.549h12.051v12.019h-8.956v16.34h-3.092zm3.155 4.858h5.8v-2.271h-5.8zm0 4.606h5.8v-2.457h-5.8zm17.44 15.584h-13.88V35.934h13.88zm-10.884-2.776h7.887v-5.174h-7.887zm14.6-10.253h-9.147V21.549h12.335v25.647c0 2.649-1.356 2.712-2.4 2.712h-5.004l-.379-3.154h3.849c.726 0 .756-.411.756-.789zm-6.087-7.161h6.088v-2.271h-6.088zm0 4.606h6.088v-2.457h-6.088z" fill="#707070"/><path data-name="パス 60918" d="M240.905 21.329h12.144c-.284 10.851 2.177 18.958 13.5 25.079l-2.334 3.311a27.065 27.065 0 01-13.029-16.4c-2.113 6.846-4.762 10.915-13.059 16.4l-2.24-3.123c7.729-4.132 13.5-11.293 13.627-21.861h-8.611z" fill="#707070"/><path data-name="パス 60919" d="M272.23 34.925a22.084 22.084 0 00-5.142-3.249l1.735-2.87a20.976 20.976 0 015.363 3.123zm-5.016 11.451a35.971 35.971 0 005.742-9.715l2.491 2.081a44.032 44.032 0 01-6.087 10.884zm6.562-20.127a25.527 25.527 0 00-5.111-3.344l1.767-2.649a29.105 29.105 0 015.394 3.155zm.789 8.423a23.463 23.463 0 0010.409-8.423h3.281a22 22 0 009.559 7.95l-1.64 3.344c-.915-.536-1.041-.631-1.293-.789v12.461h-16.815V36.849a13.906 13.906 0 01-1.23.694zm.631-8.865a17.668 17.668 0 006.4-5.646l2.9 1.136a23.457 23.457 0 01-6.909 7.1zm18.17 9.906a24.288 24.288 0 01-6.719-6.846c-1.956 3.534-5.868 6.216-6.781 6.846zm-1.64 3.028h-10.474v7.441h10.472zm-.158-18.706a21.435 21.435 0 006.246 5.551l-2.051 2.713a27.6 27.6 0 01-7.035-6.877z" fill="#707070"/></g></svg>